<svg width="12" height="12" viewBox="0 0 12 12" fill="none" xmlns="http://www.w3.org/2000/svg">
<path fill-rule="evenodd" clip-rule="evenodd" d="M8.95196 2.73252L9.30644 2.29165C9.79222 1.68905 9.69375 0.80861 9.08586 0.326002L9.06355 0.307741C8.45699 -0.174868 7.57078 -0.0770418 7.085 0.526871L6.73183 0.966436L8.95196 2.73252ZM6.79483 6.43818C6.80664 6.54512 6.86048 6.64687 6.95106 6.71992C7.13356 6.8647 7.40009 6.836 7.54582 6.6547L9.98127 3.62861C10.1296 3.4447 10.0968 3.1747 9.90643 3.03122C9.72262 2.89296 9.45872 2.93209 9.3143 3.11079L9.07667 3.40557L8.66967 3.08209L8.67097 3.08079L6.45215 1.31339L0.775141 8.36339L2.99527 10.1295L8.14319 3.73818L8.5502 4.06166L6.88541 6.12905C6.81192 6.21903 6.78303 6.33122 6.79483 6.43818ZM2.62634 10.4556L0.534878 8.79121C0.500743 8.90729 0.483675 9.00903 0.483675 9.00903L0.00446242 11.289C-0.0296732 11.4534 0.138379 11.5877 0.29199 11.5173L2.42678 10.5521C2.42547 10.5521 2.52 10.5129 2.62634 10.4556ZM11.6933 10.8638C11.6749 10.8638 11.6579 10.8651 11.6395 10.8677L8.41366 11.2825C8.24823 11.3034 8.1327 11.1234 8.22198 10.9825C8.27054 10.9082 8.31781 10.8325 8.36507 10.7569C8.4898 10.556 8.32306 10.2886 8.09198 10.2886C8.07623 10.2886 8.06047 10.2899 8.04341 10.2925L3.81584 10.9238L3.31037 10.9995L1.93181 11.2056C1.77557 11.2291 1.67054 11.3608 1.68367 11.5186C1.68892 11.5891 1.71781 11.6556 1.76376 11.7051C1.81759 11.7638 1.89242 11.7964 1.97382 11.7964C1.98958 11.7964 2.00533 11.7951 2.0224 11.7925L7.06136 11.0399C7.23335 11.0138 7.35152 11.2069 7.25042 11.3478C7.2176 11.3921 7.18478 11.4378 7.15195 11.4821C7.06136 11.6047 7.08236 11.8095 7.18739 11.9152C7.24122 11.9699 7.3095 11.9986 7.38171 11.9986C7.38959 11.9986 7.39877 11.9986 7.40665 11.9973H7.40797H7.40928L11.759 11.4469H11.7603H11.7616C11.8364 11.4351 11.9021 11.3921 11.9454 11.3256C11.9927 11.2525 12.0097 11.1625 11.9887 11.0817C11.9546 10.9499 11.839 10.8638 11.6933 10.8638Z" fill="#18191F"/>
<mask id="mask0_1557_7099" style="mask-type:alpha" maskUnits="userSpaceOnUse" x="0" y="0" width="12" height="12">
<path fill-rule="evenodd" clip-rule="evenodd" d="M8.95196 2.73252L9.30644 2.29165C9.79222 1.68905 9.69375 0.80861 9.08586 0.326002L9.06355 0.307741C8.45699 -0.174868 7.57078 -0.0770418 7.085 0.526871L6.73183 0.966436L8.95196 2.73252ZM6.79483 6.43818C6.80664 6.54512 6.86048 6.64687 6.95106 6.71992C7.13356 6.8647 7.40009 6.836 7.54582 6.6547L9.98127 3.62861C10.1296 3.4447 10.0968 3.1747 9.90643 3.03122C9.72262 2.89296 9.45872 2.93209 9.3143 3.11079L9.07667 3.40557L8.66967 3.08209L8.67097 3.08079L6.45215 1.31339L0.775141 8.36339L2.99527 10.1295L8.14319 3.73818L8.5502 4.06166L6.88541 6.12905C6.81192 6.21903 6.78303 6.33122 6.79483 6.43818ZM2.62634 10.4556L0.534878 8.79121C0.500743 8.90729 0.483675 9.00903 0.483675 9.00903L0.00446242 11.289C-0.0296732 11.4534 0.138379 11.5877 0.29199 11.5173L2.42678 10.5521C2.42547 10.5521 2.52 10.5129 2.62634 10.4556ZM11.6933 10.8638C11.6749 10.8638 11.6579 10.8651 11.6395 10.8677L8.41366 11.2825C8.24823 11.3034 8.1327 11.1234 8.22198 10.9825C8.27054 10.9082 8.31781 10.8325 8.36507 10.7569C8.4898 10.556 8.32306 10.2886 8.09198 10.2886C8.07623 10.2886 8.06047 10.2899 8.04341 10.2925L3.81584 10.9238L3.31037 10.9995L1.93181 11.2056C1.77557 11.2291 1.67054 11.3608 1.68367 11.5186C1.68892 11.5891 1.71781 11.6556 1.76376 11.7051C1.81759 11.7638 1.89242 11.7964 1.97382 11.7964C1.98958 11.7964 2.00533 11.7951 2.0224 11.7925L7.06136 11.0399C7.23335 11.0138 7.35152 11.2069 7.25042 11.3478C7.2176 11.3921 7.18478 11.4378 7.15195 11.4821C7.06136 11.6047 7.08236 11.8095 7.18739 11.9152C7.24122 11.9699 7.3095 11.9986 7.38171 11.9986C7.38959 11.9986 7.39877 11.9986 7.40665 11.9973H7.40797H7.40928L11.759 11.4469H11.7603H11.7616C11.8364 11.4351 11.9021 11.3921 11.9454 11.3256C11.9927 11.2525 12.0097 11.1625 11.9887 11.0817C11.9546 10.9499 11.839 10.8638 11.6933 10.8638Z" fill="white"/>
</mask>
<g mask="url(#mask0_1557_7099)">
</g>
</svg>
