<svg width="47" height="16" viewBox="0 0 47 16" fill="none" xmlns="http://www.w3.org/2000/svg">
<path d="M20.2899 15.1844H16.572L18.8956 0.512172H22.6138L20.2899 15.1844ZM13.4444 0.512172L9.90002 10.6038L9.4806 8.43071L9.48098 8.43149L8.23 1.83324C8.23 1.83324 8.07874 0.512172 6.4664 0.512172H0.606842L0.538086 0.760607C0.538086 0.760607 2.32995 1.14366 4.42702 2.43764L7.65703 15.1848H11.5307L17.4456 0.512172H13.4444ZM42.6868 15.1844H46.1006L43.1242 0.51178H40.1356C38.7555 0.51178 38.4194 1.60521 38.4194 1.60521L32.8745 15.1844H36.7501L37.5251 13.005H42.2514L42.6868 15.1844ZM38.5958 9.99432L40.5493 4.50362L41.6482 9.99432H38.5958ZM33.1652 4.0405L33.6958 0.88973C33.6958 0.88973 32.0586 0.25 30.3519 0.25C28.507 0.25 24.1257 1.07851 24.1257 5.10725C24.1257 8.89775 29.2679 8.94485 29.2679 10.9359C29.2679 12.9269 24.6555 12.5701 23.1333 11.3146L22.5806 14.609C22.5806 14.609 24.2407 15.4375 26.777 15.4375C29.3141 15.4375 33.1415 14.0878 33.1415 10.4143C33.1415 6.59943 27.9531 6.24424 27.9531 4.58565C27.9535 2.92667 31.5743 3.13978 33.1652 4.0405Z" fill="#2566AF"/>
</svg>
