<svg width="63" height="12" viewBox="0 0 63 12" fill="none" xmlns="http://www.w3.org/2000/svg">
<path d="M55.561 5.16607C55.2231 5.40159 54.7327 5.51802 54.0617 5.51802H53.7705H53.3963L53.9066 2.76206H54.1652H54.3959C54.9529 2.76206 55.3597 2.85171 55.6401 3.03365C55.8592 3.17634 56.1188 3.45881 56.1188 3.99483C56.1188 4.64065 55.8167 4.9881 55.561 5.16607ZM15.8642 8.62487H10.7143L11.0472 6.82346H14.2774L14.6444 4.79448H11.4453L11.7545 3.01164H16.8954L15.8642 8.62487ZM58.3353 1.46537C57.5781 0.946326 56.4323 0.684814 54.9301 0.684814H50.9957L49.5333 8.62514H44.3794L44.7099 6.82372H47.8149L48.1841 4.80032L45.0809 4.80589L45.4132 3.01217H48.6108L49.0362 0.68508H42.5409L41.1527 8.21775H38.7709L40.1692 0.68508H36.7735L35.3853 8.21775H33.063L34.4626 0.68508H31.0704L29.6042 8.6254H24.4137L24.7408 6.82399H27.8598L28.2272 4.81225L25.1129 4.80934L25.4436 3.01217H28.6767L29.1 0.68508H8.8641L7.71223 6.97756L5.4175 0.684814H1.89557L0 10.9536H3.36332L4.51043 4.48815L6.73752 10.9536H18.7926L20.2579 3.0119H22.1442L20.678 10.9536H52.3985L53.3172 5.93999L54.8065 10.9536H58.1717L56.6299 6.85714L56.9818 6.78102C57.7574 6.61499 58.3645 6.2572 58.7857 5.72118C59.2076 5.18012 59.4219 4.4855 59.4219 3.6511C59.4222 2.67931 59.0673 1.96479 58.3353 1.46537Z" fill="#8DC640"/>
<path d="M61.1084 9.73928L61.5667 9.71541C61.6638 9.7109 61.7404 9.69631 61.794 9.67324C61.8476 9.65069 61.8882 9.61621 61.9142 9.5698C61.9402 9.52365 61.9526 9.47511 61.9492 9.42313C61.9452 9.34621 61.9142 9.28495 61.8566 9.238C61.7988 9.19159 61.7097 9.17249 61.5901 9.17806L61.08 9.20405L61.1084 9.73928ZM60.9389 10.6511L60.8564 9.0359L61.5731 8.99983C61.7163 8.9924 61.8258 9.00142 61.9025 9.02688C61.9794 9.05182 62.0412 9.10009 62.09 9.17143C62.1385 9.24251 62.1656 9.32155 62.169 9.41066C62.1757 9.52524 62.1431 9.62337 62.073 9.70612C62.003 9.78808 61.8914 9.84404 61.7378 9.87322C61.7953 9.89815 61.8402 9.92202 61.8704 9.94668C61.9359 10.0008 61.9985 10.0697 62.0584 10.153L62.3597 10.5784L62.0935 10.592L61.8627 10.2668C61.7953 10.1727 61.7402 10.101 61.6972 10.0517C61.6545 10.0024 61.616 9.9687 61.5832 9.9496C61.5511 9.9305 61.5166 9.91804 61.484 9.91114C61.459 9.90743 61.4195 9.9069 61.3644 9.90982L61.1177 9.92228L61.1532 10.6402L60.9389 10.6511Z" fill="#8DC640"/>
<path d="M60.2397 9.8691C60.2232 9.53492 60.3368 9.21453 60.5609 8.96681C60.785 8.71855 61.0932 8.57188 61.4279 8.55491C62.1169 8.5191 62.7065 9.05141 62.7421 9.74127C62.7431 9.76248 62.7445 9.78503 62.7445 9.80545C62.7445 10.4675 62.223 11.022 61.5549 11.0571C60.8648 11.0921 60.2758 10.5592 60.2397 9.8691ZM61.4136 8.29738C61.0118 8.31886 60.6404 8.49444 60.3707 8.79388C60.1007 9.09305 59.9628 9.48028 59.9835 9.88316C60.027 10.7138 60.7375 11.3549 61.5687 11.3133C62.3989 11.2703 63.0413 10.5592 62.9983 9.72853V9.72774C62.9564 8.89679 62.2458 8.2552 61.4136 8.29738Z" fill="#8DC640"/>
</svg>
