<svg width="35" height="28" viewBox="0 0 35 28" fill="none" xmlns="http://www.w3.org/2000/svg">
<g clip-path="url(#clip0_1557_26055)">
<path d="M34.3105 27.1335V27.2029H34.3758C34.388 27.2031 34.4001 27.2001 34.4108 27.1941C34.415 27.1911 34.4185 27.1871 34.4207 27.1825C34.423 27.1778 34.4241 27.1727 34.4239 27.1675C34.4241 27.1625 34.423 27.1574 34.4207 27.1529C34.4184 27.1484 34.415 27.1445 34.4108 27.1417C34.4002 27.1354 34.3881 27.1323 34.3758 27.1328H34.3105V27.1335ZM34.3765 27.0844C34.4045 27.0827 34.4322 27.0907 34.4549 27.107C34.464 27.1144 34.4712 27.1238 34.476 27.1345C34.4808 27.1451 34.4829 27.1568 34.4823 27.1684C34.4828 27.1784 34.481 27.1885 34.4772 27.1978C34.4734 27.2071 34.4676 27.2155 34.4603 27.2224C34.4428 27.2375 34.4208 27.2465 34.3976 27.2482L34.4851 27.3471H34.4178L34.3373 27.2489H34.3112V27.3471H34.2548V27.0846H34.3773L34.3765 27.0844ZM34.359 27.4377C34.3885 27.438 34.4178 27.4321 34.4449 27.4204C34.471 27.4092 34.4948 27.3933 34.5149 27.3733C34.5351 27.3534 34.5512 27.3299 34.5623 27.3039C34.5853 27.2489 34.5853 27.1871 34.5623 27.1321C34.551 27.1063 34.5349 27.0827 34.5149 27.0627C34.4948 27.0428 34.471 27.0269 34.4449 27.0157C34.4176 27.0046 34.3884 26.9991 34.359 26.9994C34.329 26.9991 34.2993 27.0047 34.2715 27.0157C34.2448 27.0267 34.2205 27.0426 34.1999 27.0627C34.1689 27.0942 34.148 27.134 34.1397 27.1772C34.1314 27.2204 34.1361 27.2651 34.1532 27.3057C34.1638 27.3317 34.1797 27.3553 34.1999 27.3751C34.2205 27.3952 34.2448 27.4111 34.2715 27.4221C34.2991 27.4338 34.3289 27.4397 34.359 27.4394V27.4377ZM34.359 26.9362C34.4359 26.9362 34.5097 26.9661 34.5646 27.0195C34.591 27.0452 34.6121 27.0758 34.6265 27.1096C34.6415 27.1443 34.6492 27.1816 34.6492 27.2193C34.6492 27.2571 34.6415 27.2944 34.6265 27.3291C34.6118 27.3627 34.5907 27.3932 34.5646 27.4191C34.5378 27.4447 34.5065 27.4652 34.4724 27.4799C34.4365 27.495 34.3979 27.5027 34.359 27.5024C34.3196 27.5027 34.2805 27.495 34.2442 27.4799C34.2096 27.4656 34.1781 27.445 34.1512 27.4191C34.1251 27.3923 34.1044 27.3607 34.0902 27.3261C34.0752 27.2915 34.0675 27.2541 34.0675 27.2164C34.0675 27.1787 34.0752 27.1413 34.0902 27.1066C34.1046 27.0729 34.1257 27.0422 34.1521 27.0166C34.1786 26.9903 34.2102 26.9696 34.245 26.9558C34.2814 26.9407 34.3204 26.933 34.3598 26.9333L34.359 26.9362ZM7.563 25.9224C7.563 25.4217 7.89374 25.0105 8.43432 25.0105C8.95092 25.0105 9.29952 25.404 9.29952 25.9224C9.29952 26.4407 8.95092 26.8342 8.43432 26.8342C7.89374 26.8342 7.563 26.423 7.563 25.9224ZM9.88839 25.9224V24.4978H9.26382V24.8448C9.06572 24.5883 8.76524 24.4275 8.35662 24.4275C7.55162 24.4275 6.91987 25.0535 6.91987 25.9231C6.91987 26.7926 7.55127 27.4186 8.35662 27.4186C8.76507 27.4186 9.06572 27.2576 9.26382 27.0013V27.3471H9.88769V25.9224H9.88839ZM30.992 25.9224C30.992 25.4217 31.3227 25.0105 31.8635 25.0105C32.3806 25.0105 32.7287 25.404 32.7287 25.9224C32.7287 26.4407 32.3806 26.8342 31.8635 26.8342C31.3229 26.8342 30.992 26.423 30.992 25.9224ZM33.3181 25.9224V23.3542H32.693V24.8448C32.4949 24.5883 32.1944 24.4275 31.7858 24.4275C30.9808 24.4275 30.349 25.0535 30.349 25.9231C30.349 26.7926 30.9804 27.4186 31.7858 27.4186C32.1944 27.4186 32.4949 27.2576 32.693 27.0013V27.3471H33.3181V25.9224ZM17.6402 24.9812C18.0427 24.9812 18.3012 25.2314 18.3671 25.672H16.8768C16.9435 25.2607 17.1953 24.9812 17.6404 24.9812H17.6402ZM17.6528 24.4259C16.811 24.4259 16.2222 25.0332 16.2222 25.9215C16.2222 26.8271 16.8347 27.4171 17.6946 27.4171C18.1272 27.4171 18.5234 27.31 18.872 27.018L18.5659 26.559C18.3251 26.7499 18.0185 26.8569 17.7303 26.8569C17.3278 26.8569 16.9614 26.6721 16.8712 26.1594H19.004C19.0101 26.0823 19.0164 26.0046 19.0164 25.9213C19.0101 25.0334 18.4564 24.4257 17.6524 24.4257L17.6528 24.4259ZM25.1932 25.9213C25.1932 25.4207 25.5239 25.0095 26.0645 25.0095C26.5811 25.0095 26.9297 25.403 26.9297 25.9213C26.9297 26.4396 26.5811 26.8332 26.0645 26.8332C25.5239 26.8332 25.193 26.4219 25.193 25.9213H25.1932ZM27.5184 25.9213V24.4978H26.8942V24.8448C26.6954 24.5883 26.3956 24.4275 25.987 24.4275C25.182 24.4275 24.5502 25.0535 24.5502 25.9231C24.5502 26.7926 25.1816 27.4186 25.987 27.4186C26.3956 27.4186 26.6954 27.2576 26.8942 27.0013V27.3471H27.5186V25.9224L27.5184 25.9213ZM21.6661 25.9213C21.6661 26.7853 22.2726 27.4169 23.1984 27.4169C23.631 27.4169 23.9192 27.3215 24.2309 27.0773L23.9309 26.5767C23.6964 26.7438 23.4502 26.8332 23.1784 26.8332C22.6798 26.8271 22.3132 26.4696 22.3132 25.9213C22.3132 25.373 22.6798 25.0157 23.1784 25.0095C23.4495 25.0095 23.6957 25.0988 23.9309 25.2659L24.2309 24.7653C23.9187 24.5212 23.6304 24.4257 23.1984 24.4257C22.2726 24.4257 21.6661 25.0572 21.6661 25.9213ZM29.7178 24.4257C29.3575 24.4257 29.1228 24.5928 28.9606 24.8431V24.4978H28.3416V27.3456H28.9669V25.7492C28.9669 25.2779 29.1711 25.0161 29.5794 25.0161C29.7131 25.0141 29.8458 25.0385 29.97 25.0877L30.1625 24.504C30.0242 24.45 29.844 24.4263 29.7175 24.4263L29.7178 24.4257ZM12.9763 24.7242C12.6758 24.5278 12.2617 24.4263 11.805 24.4263C11.0773 24.4263 10.6089 24.7721 10.6089 25.3379C10.6089 25.8023 10.9576 26.0888 11.5999 26.1781L11.8949 26.2198C12.2374 26.2675 12.3991 26.3569 12.3991 26.5177C12.3991 26.7379 12.1716 26.8635 11.7444 26.8635C11.3118 26.8635 10.9996 26.7265 10.7891 26.5656L10.4956 27.0485C10.8381 27.2987 11.2707 27.4181 11.7392 27.4181C12.5687 27.4181 13.0494 27.0308 13.0494 26.4886C13.0494 25.9879 12.6711 25.7261 12.046 25.6367L11.7516 25.5944C11.4812 25.5597 11.2646 25.5057 11.2646 25.3149C11.2646 25.1066 11.4688 24.9814 11.8115 24.9814C12.1781 24.9814 12.533 25.1184 12.7069 25.2255L12.9773 24.7249L12.9763 24.7242ZM21.0352 24.4268C20.6749 24.4268 20.4402 24.5939 20.2787 24.8441V24.4978H19.6597V27.3456H20.2843V25.7492C20.2843 25.2779 20.4885 25.0161 20.8968 25.0161C21.0305 25.0141 21.1632 25.0385 21.2874 25.0877L21.4799 24.504C21.3416 24.45 21.1614 24.4263 21.0348 24.4263L21.0352 24.4268ZM15.7054 24.4978H14.6841V23.6338H14.0527V24.4978H13.4701V25.0638H14.0527V26.3629C14.0527 27.0237 14.3113 27.4172 15.0502 27.4172C15.3213 27.4172 15.6335 27.3339 15.8316 27.197L15.6511 26.6668C15.4648 26.7738 15.2605 26.8278 15.0981 26.8278C14.7859 26.8278 14.6841 26.6369 14.6841 26.3511V25.0643H15.7054V24.4978ZM6.36757 27.3463V25.559C6.36757 24.8859 5.93497 24.433 5.2376 24.427C4.87097 24.4209 4.4928 24.534 4.22802 24.9336C4.02992 24.6178 3.71772 24.427 3.27882 24.427C2.97205 24.427 2.67227 24.5163 2.4376 24.8498V24.4978H1.8125V27.3456H2.4425V25.7665C2.4425 25.2722 2.719 25.0095 3.146 25.0095C3.56075 25.0095 3.77057 25.2776 3.77057 25.7603V27.3452H4.40197V25.7662C4.40197 25.2718 4.6902 25.0091 5.10477 25.0091C5.53125 25.0091 5.73477 25.2772 5.73477 25.7599V27.3449L6.36757 27.3463Z" fill="#231F20"/>
<path d="M34.6665 17.8737V17.4573H34.5571L34.4306 17.743L34.3047 17.4573H34.195V17.8737H34.2727V17.56L34.391 17.8307H34.4715L34.5898 17.5593V17.8737H34.6668H34.6665ZM33.9726 17.8737V17.5286H34.1126V17.4583H33.7549V17.5286H33.8949V17.8737H33.9719H33.9726Z" fill="#F79410"/>
<path d="M22.2356 19.6595H12.7705V2.79321H22.2357L22.2356 19.6595Z" fill="#FF5F00"/>
<path d="M13.37 11.2259C13.37 7.80455 14.9856 4.75681 17.5014 2.79272C15.5971 1.30381 13.2417 0.495726 10.8166 0.499279C4.8426 0.499279 0 5.30167 0 11.2259C0 17.1501 4.8426 21.9525 10.8166 21.9525C13.2418 21.9561 15.5972 21.148 17.5016 19.659C14.986 17.6953 13.37 14.6474 13.37 11.2259Z" fill="#EB001B"/>
<path d="M35.0044 11.2266C35.0044 17.1508 30.1618 21.9532 24.1878 21.9532C21.7624 21.9567 19.4067 21.1487 17.502 19.6598C20.0184 17.6957 21.634 14.6481 21.634 11.2266C21.634 7.80511 20.0184 4.75754 17.502 2.79345C19.4066 1.30459 21.7623 0.496521 24.1876 0.500011C30.1616 0.500011 35.0042 5.3024 35.0042 11.2266" fill="#F79E1B"/>
</g>
<defs>
<clipPath id="clip0_1557_26055">
<rect width="35" height="27" fill="white" transform="translate(0 0.5)"/>
</clipPath>
</defs>
</svg>
