<svg width="69" height="22" viewBox="0 0 69 22" fill="none" xmlns="http://www.w3.org/2000/svg">
<path fill-rule="evenodd" clip-rule="evenodd" d="M42.3541 12.7447C42.3541 13.5267 42.3541 14.3087 42.3541 15.0908C42.3541 15.4061 42.2911 15.7215 42.1523 16.0116C41.8874 16.6296 41.4081 16.9576 40.727 16.9954C40.6765 16.9954 40.6261 16.9954 40.5883 16.9954C39.4783 16.9954 38.3809 16.9954 37.2709 16.9954C37.0565 16.9954 36.8421 16.9702 36.6402 16.9323C35.9465 16.781 35.5176 16.3269 35.3537 15.6332C35.3032 15.4061 35.2654 15.1665 35.2654 14.9268C35.2528 13.4384 35.2654 11.9626 35.2654 10.4743C35.2654 10.3481 35.2906 10.222 35.3158 10.1085C35.3915 9.8562 35.5555 9.74268 35.8078 9.74268C36.1105 9.74268 36.4132 9.74268 36.7159 9.74268C37.0186 9.74268 37.3088 9.74268 37.6115 9.74268C37.725 9.74268 37.8385 9.7679 37.9394 9.80574C38.1791 9.89404 38.3052 10.0959 38.3052 10.3607C38.3052 11.4833 38.3052 12.5933 38.3052 13.7159C38.3052 13.8421 38.3178 13.9682 38.3431 14.0817C38.3935 14.3214 38.5575 14.4601 38.7845 14.4727C39.0494 14.4853 39.2512 14.3718 39.3269 14.1322C39.3647 14.0186 39.3774 13.9051 39.3774 13.779C39.3774 12.669 39.3774 11.5464 39.3774 10.4364C39.3774 10.3103 39.39 10.1841 39.4026 10.0706C39.4278 9.88142 39.5539 9.78051 39.7305 9.75529C39.7936 9.74267 39.8567 9.74268 39.9197 9.74268C40.4873 9.74268 41.0423 9.74268 41.6099 9.74268C41.6982 9.74268 41.7865 9.75529 41.8622 9.7679C42.1145 9.80574 42.2785 9.98233 42.3037 10.2346C42.3163 10.2977 42.3163 10.3607 42.3163 10.4364C42.3668 11.2185 42.3668 11.9753 42.3541 12.7447C42.3668 12.7447 42.3541 12.7447 42.3541 12.7447Z" fill="#1F2B67"/>
<path fill-rule="evenodd" clip-rule="evenodd" d="M24.4189 7.16992C25.6298 7.16992 26.8407 7.16992 28.0389 7.16992C28.1525 7.16992 28.266 7.18254 28.3795 7.19515C28.5561 7.23299 28.6318 7.32128 28.6318 7.49787C28.6318 7.66185 28.6318 7.82583 28.6318 7.97719C28.6318 8.38082 28.6318 8.78445 28.6318 9.18808C28.6318 9.45296 28.5687 9.51603 28.3038 9.52864C27.9506 9.54125 27.5975 9.52864 27.2569 9.52864C26.9542 9.52864 26.6641 9.52864 26.3613 9.52864C26.3361 9.52864 26.3109 9.52864 26.2857 9.52864C26.046 9.54125 25.9956 9.59171 25.9956 9.83136C25.9956 12.0261 25.9956 14.2082 25.9956 16.403C25.9956 16.4787 25.9956 16.567 25.9829 16.6426C25.9703 16.7814 25.8946 16.8823 25.7559 16.9201C25.655 16.9454 25.5667 16.9706 25.4658 16.9706C25.1 16.9832 24.7342 16.9706 24.3684 16.9706C23.9648 16.9706 23.5738 16.9706 23.1701 16.9706C23.0818 16.9706 22.9935 16.958 22.9053 16.9327C22.7917 16.9075 22.7287 16.8318 22.7034 16.7183C22.6908 16.6426 22.6908 16.5543 22.6908 16.4787C22.6908 14.2965 22.6908 12.1144 22.6908 9.93227C22.6908 9.86921 22.6908 9.79352 22.6908 9.73046C22.6782 9.61694 22.6404 9.56648 22.5268 9.55387C22.4638 9.54126 22.4007 9.54126 22.3376 9.54126C21.77 9.54126 21.2151 9.54126 20.6474 9.54126C20.5718 9.54126 20.4835 9.54125 20.4078 9.52864C20.2817 9.50341 20.2186 9.44035 20.206 9.31421C20.206 9.26376 20.1934 9.20069 20.1934 9.15024C20.1934 8.6457 20.1934 8.14116 20.1934 7.62401C20.1934 7.29606 20.2943 7.19515 20.6222 7.18254C20.6853 7.18254 20.761 7.18254 20.824 7.18254C22.0223 7.16992 23.2206 7.16992 24.4189 7.16992Z" fill="#1F2B67"/>
<path fill-rule="evenodd" clip-rule="evenodd" d="M64.3031 12.9847C64.4544 12.6063 64.6058 12.2152 64.7698 11.8368C64.9716 11.3323 65.1734 10.8404 65.3752 10.3358C65.4509 10.1592 65.5518 9.99527 65.7032 9.88175C65.8041 9.80607 65.9302 9.75562 66.0563 9.75562C66.5987 9.75562 67.1411 9.75562 67.6961 9.75562C67.797 9.75562 67.8979 9.76823 67.9862 9.79346C68.1249 9.8313 68.1754 9.9322 68.1376 10.071C68.1249 10.134 68.0997 10.1971 68.0745 10.2602C66.8258 13.1991 65.577 16.138 64.3283 19.0644C64.2652 19.2157 64.1769 19.3545 64.0634 19.4806C63.9373 19.6067 63.7859 19.6698 63.6093 19.6698C63.13 19.6698 62.6633 19.6698 62.184 19.6698C62.0957 19.6698 62.0074 19.6572 61.9317 19.6446C61.7173 19.6067 61.6416 19.4932 61.7047 19.2914C61.7173 19.2283 61.7425 19.1779 61.7678 19.1148C62.0705 18.3832 62.3858 17.6516 62.7012 16.9201C62.739 16.8318 62.739 16.7687 62.7012 16.6804C61.8434 14.5613 60.9857 12.4423 60.128 10.3232C60.1028 10.2602 60.0776 10.1971 60.0649 10.134C60.0145 9.94482 60.0902 9.81868 60.292 9.78084C60.3803 9.76823 60.456 9.75562 60.5443 9.75562C61.238 9.75562 61.9317 9.75562 62.6381 9.75562C62.8273 9.75562 62.9913 9.81868 63.1174 9.95743C63.2309 10.071 63.3066 10.2097 63.3571 10.3484C63.6472 11.1809 63.9373 12.0134 64.24 12.8333C64.2526 12.8838 64.2778 12.9216 64.2905 12.972C64.2778 12.9847 64.2904 12.9847 64.3031 12.9847Z" fill="#1F2B67"/>
<path fill-rule="evenodd" clip-rule="evenodd" d="M46.6189 17.1844C45.5973 17.1592 44.7648 17.0835 43.9323 16.8691C43.844 16.8439 43.7557 16.806 43.6548 16.7934C43.5665 16.7682 43.5286 16.7177 43.5034 16.6294C43.4403 16.3267 43.4277 16.024 43.4277 15.7213C43.4277 15.5447 43.453 15.3681 43.4782 15.2041C43.4782 15.1663 43.4908 15.1284 43.5034 15.0906C43.5665 14.8762 43.6169 14.8509 43.8314 14.9014C44.4999 15.078 45.1936 15.1284 45.8874 15.1032C46.0135 15.1032 46.127 15.078 46.2531 15.0528C46.3162 15.0401 46.3919 15.0023 46.4424 14.9645C46.5685 14.8636 46.5685 14.7122 46.455 14.6113C46.3793 14.5482 46.291 14.4851 46.1901 14.4473C46.0261 14.359 45.8495 14.2959 45.6729 14.2203C45.3828 14.0815 45.0927 13.9554 44.8026 13.7914C44.4999 13.6274 44.235 13.4256 44.0332 13.1481C43.5539 12.5048 43.4403 11.8111 43.7305 11.0543C43.8566 10.7011 44.1215 10.4362 44.4242 10.2344C44.8278 9.9443 45.2945 9.78033 45.7738 9.6668C46.3541 9.54067 46.9343 9.51544 47.5271 9.52806C47.9686 9.54067 48.4101 9.55328 48.8389 9.64158C48.9398 9.6668 49.0407 9.70464 49.1416 9.71726C49.2425 9.74248 49.293 9.80555 49.3056 9.90646C49.3056 10.083 49.3182 10.2596 49.3056 10.4362C49.2804 10.6885 49.2299 10.9282 49.1416 11.1678C49.129 11.2056 49.1164 11.2435 49.1038 11.2687C48.9903 11.5084 48.9272 11.5336 48.6749 11.5084C48.2839 11.4579 47.8803 11.4075 47.4893 11.3696C47.3631 11.357 47.237 11.3696 47.1235 11.3696C47.0478 11.3696 46.9721 11.3948 46.8964 11.4075C46.7955 11.4327 46.7198 11.4958 46.7072 11.6093C46.6946 11.7228 46.7577 11.7733 46.8334 11.8237C46.9595 11.8994 47.0856 11.9751 47.2118 12.0381C47.5019 12.1895 47.8046 12.3156 48.0947 12.467C48.4479 12.6562 48.7632 12.8706 49.0407 13.1607C49.5453 13.6653 49.7723 14.2833 49.7219 14.9897C49.7092 15.1915 49.6714 15.4059 49.6209 15.6077C49.4696 16.1249 49.1416 16.5033 48.6749 16.7682C48.3091 16.97 47.9055 17.0835 47.4893 17.134C47.1487 17.1592 46.8081 17.1718 46.6189 17.1844Z" fill="#1F2B67"/>
<path fill-rule="evenodd" clip-rule="evenodd" d="M51.1469 11.723C51.0334 11.723 50.9325 11.723 50.819 11.723C50.7433 11.723 50.6802 11.723 50.6046 11.7104C50.4784 11.6978 50.3901 11.6221 50.3523 11.5086C50.3271 11.4329 50.3145 11.3572 50.3145 11.2815C50.3145 10.9157 50.3145 10.5626 50.3145 10.1968C50.3145 10.1842 50.3145 10.1589 50.3145 10.1337C50.3397 9.89404 50.4658 9.76791 50.6929 9.75529C50.8316 9.74268 50.983 9.75529 51.1217 9.75529C51.1722 9.75529 51.2226 9.75529 51.2857 9.75529C51.2857 9.70484 51.2983 9.65439 51.2983 9.60393C51.2983 9.35166 51.2983 9.09939 51.2983 8.84713C51.2983 8.6327 51.3866 8.46872 51.5758 8.38043C51.6767 8.32997 51.7902 8.27952 51.9037 8.25429C52.4587 8.15338 53.0263 8.06509 53.5813 7.9768C53.657 7.96418 53.7327 7.9768 53.8084 7.9768C53.9219 7.98941 53.985 8.06509 53.9976 8.17861C54.0102 8.27952 54.0228 8.38043 54.0228 8.48134C54.0228 8.85974 54.0228 9.25075 54.0228 9.62916C54.0228 9.667 54.0228 9.69223 54.0354 9.74268C54.0733 9.74268 54.1237 9.75529 54.1616 9.75529C54.3886 9.75529 54.6283 9.75529 54.8553 9.75529C55.0571 9.75529 55.1832 9.83098 55.2337 10.0328C55.2715 10.1337 55.2842 10.2598 55.2842 10.3607C55.2968 10.6887 55.2842 11.004 55.2842 11.332C55.2842 11.3572 55.2842 11.395 55.2842 11.4203C55.2715 11.6599 55.1833 11.7482 54.9436 11.7482C54.7039 11.7482 54.4643 11.7482 54.2372 11.7482C54.1994 11.7482 54.1616 11.7482 54.1237 11.7608C54.1237 11.8113 54.1111 11.8617 54.1111 11.9122C54.1111 12.8078 54.1111 13.7033 54.1111 14.5989C54.1111 14.8637 54.1994 14.9773 54.4643 15.0151C54.5526 15.0277 54.6409 15.0277 54.7292 15.0277C54.8301 15.0277 54.8553 15.0277 54.8931 15.1286C54.931 15.2674 54.9688 15.4061 55.0067 15.5449C55.0823 15.9107 55.1202 16.2765 55.1202 16.6422C55.1202 16.6927 55.1202 16.7432 55.1202 16.781C55.1202 16.8819 55.0823 16.9324 54.994 16.9576C54.7544 17.008 54.5021 17.0711 54.2625 17.1089C53.8462 17.172 53.4174 17.1972 52.9885 17.1468C52.5092 17.0837 52.0677 16.9324 51.7145 16.5792C51.3992 16.2638 51.2226 15.8728 51.1722 15.4314C51.1469 15.1917 51.1469 14.9394 51.1469 14.6998C51.1469 13.7411 51.1469 12.7825 51.1469 11.8239C51.1469 11.7987 51.1469 11.7734 51.1469 11.723Z" fill="#1F2B67"/>
<path fill-rule="evenodd" clip-rule="evenodd" d="M56.3682 12.0255C56.3682 10.5245 56.3682 9.03614 56.3682 7.53514C56.3682 7.47207 56.3682 7.42161 56.3682 7.35855C56.3808 7.16934 56.5069 7.04321 56.6961 7.01799C56.7466 7.01799 56.797 7.00537 56.8475 7.00537C57.4529 7.00537 58.0458 7.00537 58.6512 7.00537C58.7773 7.00537 58.9035 7.01798 59.017 7.04321C59.2188 7.08105 59.2819 7.16934 59.2945 7.35855C59.2945 7.409 59.2945 7.45946 59.2945 7.50991C59.2945 10.4741 59.2945 13.4382 59.2945 16.415C59.2945 16.4907 59.2945 16.5664 59.2819 16.6421C59.2566 16.8439 59.1557 16.9448 58.9665 16.97C58.9035 16.9826 58.8404 16.9826 58.7773 16.9826C58.134 16.9826 57.4908 16.9826 56.8475 16.9826C56.7592 16.9826 56.6583 16.9826 56.57 16.9574C56.4565 16.9448 56.3934 16.8691 56.3808 16.7556C56.3682 16.6925 56.3682 16.6294 56.3682 16.5664C56.3682 15.6708 56.3682 14.7753 56.3682 13.8797C56.3682 13.2743 56.3682 12.6436 56.3682 12.0255Z" fill="#1F2B67"/>
<path fill-rule="evenodd" clip-rule="evenodd" d="M29.1113 13.7408C29.1113 12.9714 29.1113 12.202 29.1113 11.4199C29.1113 11.2434 29.1239 11.0668 29.1618 10.9028C29.2375 10.4739 29.4897 10.1712 29.8934 9.98201C30.1582 9.86849 30.4357 9.80542 30.7132 9.79281C31.0412 9.78019 31.3818 9.76758 31.7097 9.76758C32.4917 9.76758 33.2738 9.76758 34.0558 9.76758C34.0684 9.76758 34.0936 9.76758 34.1189 9.76758C34.3459 9.76758 34.409 9.83065 34.409 10.0577C34.409 10.537 34.409 11.0289 34.409 11.5082C34.409 11.5461 34.409 11.5713 34.409 11.6091C34.3964 11.7479 34.3081 11.8362 34.1693 11.8488C34.0558 11.8614 33.9549 11.8614 33.8414 11.8614C33.6017 11.874 33.3621 11.8993 33.1224 11.9245C32.9206 11.9497 32.744 12.0254 32.5674 12.1263C32.2647 12.3029 32.1007 12.5678 32.0755 12.9083C32.0755 12.984 32.0755 13.0723 32.0755 13.148C32.0755 14.2201 32.0755 15.2923 32.0755 16.3644C32.0755 16.4653 32.0629 16.5662 32.0503 16.6671C32.0124 16.869 31.8863 16.9825 31.6845 16.9951C31.6466 16.9951 31.6214 16.9951 31.5836 16.9951C30.9781 16.9951 30.3853 16.9951 29.7798 16.9951C29.6915 16.9951 29.6033 16.9825 29.5276 16.9573C29.3131 16.9068 29.187 16.7554 29.1492 16.541C29.1366 16.4527 29.1239 16.3518 29.1239 16.2635C29.1113 15.4184 29.1113 14.5733 29.1113 13.7408Z" fill="#1F2B67"/>
<path fill-rule="evenodd" clip-rule="evenodd" d="M14.6424 7.16895C14.7307 7.16895 14.7938 7.18156 14.8442 7.18156C15.5632 7.18156 16.2696 7.18156 16.9885 7.18156C17.2408 7.18156 17.4931 7.23202 17.7327 7.34554C18.1742 7.57258 18.3256 7.92576 18.2373 8.39245C18.0859 9.14926 17.9093 9.89346 17.7327 10.6503C17.43 12.0125 17.1273 13.3622 16.8246 14.7244C16.7363 15.1028 16.6606 15.4938 16.5723 15.8722C16.484 16.2633 16.2948 16.5786 15.929 16.7804C15.7146 16.9065 15.4749 16.9444 15.2353 16.957C15.0965 16.9696 14.9452 16.957 14.8064 16.957C11.1737 16.957 7.54105 16.957 3.92099 16.957C3.61826 16.957 3.32816 16.8939 3.07589 16.7173C2.79839 16.5281 2.63442 16.2633 2.55874 15.9479C2.44521 15.456 2.33169 14.9641 2.21817 14.4721C1.81454 12.6558 1.3983 10.8395 0.994664 9.01051C0.94421 8.8087 0.893757 8.60688 0.86853 8.40507C0.843303 8.25371 0.843303 8.10234 0.86853 7.95098C0.90637 7.69871 1.07035 7.52213 1.28477 7.38338C1.53704 7.23202 1.82715 7.16895 2.11726 7.16895C2.82362 7.16895 3.54258 7.16895 4.24894 7.16895C4.46337 7.16895 4.46337 7.16895 4.46337 6.95452C4.46337 6.52566 4.46337 6.0968 4.46337 5.68056C4.45075 3.32184 6.09051 1.27846 8.38616 0.723469C8.95376 0.58472 9.52137 0.559493 10.1016 0.62256C11.0854 0.723468 11.9558 1.08926 12.7252 1.70732C13.6586 2.46413 14.264 3.43536 14.5289 4.60842C14.6046 4.94898 14.6424 5.30216 14.6424 5.65533C14.6424 6.09681 14.6424 6.53827 14.6424 6.97975C14.6424 7.04281 14.6424 7.09327 14.6424 7.16895ZM9.54659 7.18156C10.5683 7.18156 11.6026 7.18156 12.6243 7.18156C12.6621 7.18156 12.7126 7.18156 12.7504 7.18156C12.8387 7.18156 12.8513 7.16895 12.8639 7.06804C12.8639 7.0302 12.8639 6.99236 12.8639 6.95452C12.8639 6.51305 12.8639 6.07158 12.8639 5.63011C12.8639 5.40306 12.8513 5.18864 12.8135 4.96159C12.6747 4.16694 12.2963 3.49843 11.6657 2.99389C10.9341 2.38845 10.089 2.14879 9.14296 2.2497C8.65104 2.30015 8.19695 2.46413 7.79332 2.72901C6.78425 3.38491 6.26709 4.33092 6.22925 5.5292C6.21664 6.00851 6.22925 6.48782 6.22925 6.96713C6.22925 7.16895 6.22925 7.16895 6.43107 7.16895C7.47799 7.18156 8.51229 7.18156 9.54659 7.18156ZM9.54659 9.22494C9.54659 9.22494 9.54659 9.23756 9.54659 9.22494C8.89069 9.22494 8.23479 9.22494 7.57889 9.22494C7.36446 9.22494 7.28878 9.30062 7.28878 9.51505C7.28878 9.74209 7.28878 9.96914 7.28878 10.1962C7.28878 10.4737 7.32662 10.5115 7.60412 10.5241C7.85639 10.5241 8.10866 10.5241 8.36093 10.5241C8.60058 10.5241 8.60058 10.5241 8.60058 10.7638C8.60058 11.8485 8.60058 12.9333 8.60058 14.0181C8.60058 14.0811 8.60058 14.1568 8.6132 14.2199C8.63843 14.3712 8.68888 14.4343 8.84024 14.4343C9.24387 14.4469 9.63489 14.4469 10.0385 14.4469C10.089 14.4469 10.1394 14.4469 10.1899 14.4343C10.3034 14.4217 10.3665 14.3586 10.3917 14.2451C10.4043 14.182 10.4043 14.119 10.4043 14.0433C10.4043 12.9333 10.4043 11.8359 10.4043 10.7259C10.4043 10.5367 10.4043 10.5241 10.6061 10.5241C10.8962 10.5241 11.1863 10.5241 11.4765 10.5241C11.5395 10.5241 11.6026 10.5115 11.6783 10.4989C11.7413 10.4863 11.7792 10.4484 11.7918 10.3854C11.8044 10.3475 11.8044 10.2971 11.8044 10.2592C11.8044 10.007 11.8044 9.76732 11.8044 9.51505C11.8044 9.28801 11.7287 9.22494 11.5143 9.22494C11.4765 9.22494 11.4386 9.22494 11.4008 9.22494C10.7701 9.22494 10.1647 9.22494 9.54659 9.22494Z" fill="#87BD5C"/>
<path fill-rule="evenodd" clip-rule="evenodd" d="M10.9966 19.3786C10.9714 18.3317 11.8795 17.3857 13.0148 17.3983C14.0869 17.4109 14.9951 18.3065 14.9951 19.4165C14.9825 20.5265 14.0617 21.4346 12.9391 21.4094C11.9174 21.3842 10.9714 20.5138 10.9966 19.3786Z" fill="#87BD5C"/>
<path fill-rule="evenodd" clip-rule="evenodd" d="M8.12143 19.4042C8.14666 20.4889 7.22588 21.4097 6.11589 21.4097C5.00591 21.4097 4.11035 20.4889 4.11035 19.4042C4.11035 18.2942 5.04375 17.3987 6.11589 17.4113C7.20065 17.3987 8.13405 18.2942 8.12143 19.4042Z" fill="#87BD5C"/>
</svg>
