<svg width="59" height="16" viewBox="0 0 59 16" fill="none" xmlns="http://www.w3.org/2000/svg">
<path d="M10.7982 1.64562C10.1053 0.855811 8.8527 0.517201 7.25031 0.517201H2.59962C2.441 0.517117 2.28755 0.573651 2.16689 0.676626C2.04624 0.779603 1.96629 0.922259 1.94145 1.07893L0.00583704 13.3611C-0.00313811 13.4181 0.000345461 13.4764 0.016048 13.5319C0.0317505 13.5874 0.0592986 13.6388 0.0967942 13.6826C0.13429 13.7265 0.180842 13.7616 0.233243 13.7857C0.285643 13.8098 0.342648 13.8223 0.400328 13.8223H3.27146L3.99255 9.24857L3.9702 9.3918C3.99457 9.23544 4.07398 9.09293 4.19412 8.98994C4.31426 8.88695 4.46724 8.83026 4.62548 8.83007H5.98985C8.67015 8.83007 10.7689 7.74139 11.3819 4.59209C11.4001 4.49895 11.4159 4.4083 11.4295 4.31971C11.6117 3.1557 11.4283 2.3634 10.7987 1.64603" fill="#003087"/>
<path d="M45.9469 7.4907C45.7714 8.64313 44.8913 8.64313 44.0402 8.64313H43.5559L43.8958 6.49144C43.9165 6.36146 44.0282 6.26584 44.1599 6.26584H44.3821C44.9617 6.26584 45.5089 6.26584 45.7912 6.59575C45.9597 6.7932 46.0106 7.08628 45.9469 7.4907ZM45.5764 4.4838H42.3658C42.2595 4.48385 42.1566 4.5218 42.0758 4.59084C41.9949 4.65988 41.9413 4.75548 41.9245 4.86049L40.6272 13.0926C40.6213 13.1308 40.6236 13.1698 40.6341 13.207C40.6447 13.2441 40.6631 13.2786 40.6882 13.308C40.7133 13.3373 40.7444 13.3609 40.7795 13.3771C40.8146 13.3934 40.8527 13.4018 40.8913 13.4019H42.5388C42.6924 13.4019 42.8232 13.2901 42.8472 13.1386L43.2156 10.8039C43.2496 10.5874 43.4367 10.4272 43.6561 10.4272H44.6719C46.7872 10.4272 48.0075 9.40438 48.3262 7.37563C48.4699 6.48895 48.332 5.79187 47.9168 5.30382C47.4603 4.76735 46.651 4.48338 45.5768 4.48338" fill="#009CDE"/>
<path d="M23.0475 7.4903C22.872 8.64272 21.992 8.64273 21.1405 8.64273H20.6562L20.996 6.49103C21.0167 6.36105 21.1285 6.26543 21.2601 6.26543H21.4824C22.0619 6.26543 22.6092 6.26543 22.8915 6.59535C23.0604 6.7928 23.1113 7.08587 23.0475 7.4903ZM22.677 4.48339H19.4665C19.2471 4.48339 19.06 4.64318 19.0256 4.86008L17.7279 13.0922C17.7219 13.1304 17.7242 13.1694 17.7347 13.2066C17.7451 13.2438 17.7636 13.2783 17.7887 13.3077C17.8138 13.3371 17.845 13.3607 17.8801 13.3769C17.9152 13.3931 17.9533 13.4014 17.992 13.4015H19.5253C19.7446 13.4015 19.9313 13.2417 19.9657 13.0248L20.3163 10.8039C20.3502 10.587 20.5374 10.4272 20.7567 10.4272H21.7726C23.8878 10.4272 25.1081 9.40397 25.4269 7.37522C25.5705 6.48855 25.4327 5.79146 25.0175 5.30342C24.5609 4.76695 23.7516 4.48298 22.6775 4.48298L22.677 4.48339ZM30.131 10.4459C29.982 11.3243 29.2853 11.9141 28.3957 11.9141C27.9499 11.9141 27.5927 11.7705 27.3633 11.499C27.1357 11.2299 27.0504 10.8462 27.1224 10.4194C27.2607 9.54844 27.9693 8.93994 28.8453 8.93994C29.282 8.93994 29.6359 9.08482 29.8702 9.35885C30.1057 9.63495 30.1984 10.0208 30.131 10.4459ZM32.2736 7.45304H30.7362C30.6722 7.45297 30.6104 7.47575 30.5618 7.51727C30.5132 7.5588 30.4811 7.61633 30.4712 7.67947L30.4042 8.10915L30.2966 7.9535C29.9637 7.47043 29.2215 7.30858 28.4806 7.30858C26.7821 7.30858 25.3313 8.59595 25.049 10.4008C24.902 11.3019 25.1106 12.1625 25.6214 12.7631C26.0904 13.3149 26.7598 13.5447 27.5575 13.5447C28.9268 13.5447 29.686 12.6655 29.686 12.6655L29.6173 13.0926C29.6112 13.1309 29.6135 13.1699 29.624 13.2072C29.6346 13.2444 29.653 13.2789 29.6782 13.3083C29.7033 13.3377 29.7346 13.3613 29.7697 13.3774C29.8049 13.3936 29.8431 13.4019 29.8818 13.4019H31.266C31.4854 13.4019 31.6725 13.2425 31.7069 13.0252L32.5381 7.76268C32.5441 7.72444 32.5417 7.68537 32.5311 7.64814C32.5205 7.61091 32.502 7.57642 32.4768 7.54703C32.4517 7.51764 32.4204 7.49406 32.3853 7.47791C32.3501 7.46175 32.3118 7.45341 32.2731 7.45346" fill="#003087"/>
<path d="M53.0303 10.4459C52.8813 11.3243 52.1847 11.9141 51.2951 11.9141C50.8493 11.9141 50.492 11.7705 50.2627 11.499C50.035 11.2299 49.9498 10.8462 50.0218 10.4194C50.16 9.54844 50.8683 8.93994 51.7446 8.93994C52.1813 8.93994 52.5353 9.08482 52.7696 9.35885C53.0051 9.63495 53.0978 10.0208 53.0303 10.4459ZM55.1729 7.45304H53.6355C53.5716 7.45297 53.5098 7.47575 53.4612 7.51727C53.4126 7.5588 53.3805 7.61633 53.3706 7.67947L53.3035 8.10915L53.1959 7.9535C52.8631 7.47043 52.1209 7.30858 51.3799 7.30858C49.6819 7.30858 48.2311 8.59595 47.9483 10.4008C47.8014 11.3019 48.0104 12.1625 48.5212 12.7631C48.9902 13.3149 49.6596 13.5447 50.4573 13.5447C51.827 13.5447 52.5862 12.6655 52.5862 12.6655L52.5175 13.0926C52.5113 13.1308 52.5135 13.1699 52.5239 13.2071C52.5343 13.2443 52.5527 13.2788 52.5778 13.3083C52.6029 13.3377 52.634 13.3613 52.6692 13.3774C52.7043 13.3936 52.7425 13.4019 52.7812 13.4019H54.165C54.3844 13.4019 54.5715 13.2425 54.6062 13.0252L55.4374 7.76268C55.4434 7.72444 55.441 7.68537 55.4305 7.64814C55.4199 7.61091 55.4014 7.57642 55.3762 7.54703C55.351 7.51764 55.3198 7.49406 55.2846 7.4779C55.2495 7.46175 55.2112 7.45341 55.1725 7.45346" fill="#009CDE"/>
<path d="M40.4615 7.45376H38.9158C38.768 7.45376 38.6302 7.52703 38.5474 7.64956L36.4156 10.7889L35.5119 7.77209C35.4843 7.68007 35.4279 7.59938 35.3509 7.54197C35.2738 7.48456 35.1804 7.45349 35.0843 7.45335H33.5655C33.523 7.45337 33.481 7.46355 33.4431 7.48304C33.4052 7.50252 33.3726 7.53076 33.3478 7.56541C33.323 7.60005 33.3069 7.6401 33.3007 7.68224C33.2945 7.72438 33.2985 7.76738 33.3122 7.80769L35.0135 12.8024L33.4132 15.0604C33.3849 15.1005 33.3682 15.1476 33.3649 15.1965C33.3615 15.2455 33.3717 15.2944 33.3942 15.338C33.4168 15.3815 33.4508 15.4181 33.4927 15.4436C33.5346 15.4691 33.5827 15.4826 33.6318 15.4827H35.1758C35.3215 15.4827 35.4585 15.4111 35.5421 15.291L40.6809 7.87392C40.7088 7.83383 40.7252 7.78686 40.7282 7.73811C40.7313 7.68936 40.721 7.6407 40.6984 7.5974C40.6758 7.5541 40.6418 7.51782 40.6 7.4925C40.5582 7.46718 40.5103 7.45378 40.4615 7.45376Z" fill="#003087"/>
<path d="M56.9853 4.7103L55.6673 13.0931C55.6613 13.1313 55.6637 13.1704 55.6742 13.2076C55.6848 13.2448 55.7032 13.2792 55.7284 13.3086C55.7535 13.338 55.7847 13.3616 55.8198 13.3778C55.8549 13.3939 55.8931 13.4023 55.9318 13.4023H57.2568C57.4762 13.4023 57.6633 13.2426 57.6977 13.0257L58.9971 4.79309C59.0031 4.75488 59.0008 4.71581 58.9903 4.67858C58.9798 4.64135 58.9613 4.60685 58.9362 4.57745C58.911 4.54806 58.8798 4.52447 58.8446 4.50831C58.8095 4.49215 58.7712 4.48382 58.7326 4.48387H57.2498C57.186 4.48371 57.1242 4.50642 57.0757 4.54788C57.0271 4.58934 56.9951 4.64681 56.9853 4.70989" fill="#009CDE"/>
<path d="M10.7982 1.64562C10.1053 0.855811 8.8527 0.517201 7.25031 0.517201H2.59962C2.441 0.517117 2.28755 0.573651 2.16689 0.676626C2.04624 0.779603 1.96629 0.922259 1.94145 1.07893L0.00583704 13.3611C-0.00313811 13.4181 0.000345461 13.4764 0.016048 13.5319C0.0317505 13.5874 0.0592986 13.6388 0.0967942 13.6826C0.13429 13.7265 0.180842 13.7616 0.233243 13.7857C0.285643 13.8098 0.342648 13.8223 0.400328 13.8223H3.27146L3.99255 9.24857L3.9702 9.3918C3.99457 9.23544 4.07398 9.09293 4.19412 8.98994C4.31426 8.88695 4.46724 8.83026 4.62548 8.83007H5.98985C8.67015 8.83007 10.7689 7.74139 11.3819 4.59209C11.4001 4.49895 11.4159 4.4083 11.4295 4.31971C11.6117 3.1557 11.4283 2.3634 10.7987 1.64603" fill="#003087"/>
<path d="M4.76655 4.33545C4.78831 4.19855 4.85814 4.07389 4.96352 3.98384C5.06889 3.89379 5.20291 3.84424 5.34152 3.84409H8.98756C9.41931 3.84409 9.82208 3.87224 10.1901 3.93102C10.3913 3.96339 10.5903 4.0079 10.7862 4.06431C11.0085 4.12683 11.2237 4.21258 11.4282 4.32013C11.6112 3.1557 11.4274 2.36382 10.7977 1.64604C10.1044 0.856642 8.8522 0.518032 7.24981 0.518032H2.59871C2.44023 0.518145 2.28698 0.574767 2.1665 0.677725C2.04601 0.780683 1.96619 0.923232 1.94137 1.07976L0.00492589 13.3607C-0.00411001 13.4177 -0.000685958 13.4759 0.0149623 13.5315C0.0306106 13.587 0.0581109 13.6385 0.0955682 13.6823C0.133026 13.7262 0.179549 13.7614 0.231933 13.7856C0.284318 13.8097 0.341317 13.8223 0.399003 13.8223H3.27055L3.99164 9.24816L4.76655 4.33545Z" fill="#003087"/>
<path d="M11.4284 4.31978C11.4142 4.41085 11.3984 4.50166 11.3808 4.59215C10.7678 7.74104 8.66906 8.83013 5.98876 8.83013H4.62398C4.46576 8.83025 4.3128 8.88693 4.19271 8.98994C4.07262 9.09295 3.99331 9.2355 3.96912 9.39186L3.27038 13.8219L3.07168 15.0787C3.06378 15.1285 3.06679 15.1796 3.08051 15.2282C3.09423 15.2768 3.11833 15.3219 3.15115 15.3603C3.18396 15.3987 3.22472 15.4295 3.2706 15.4506C3.31648 15.4718 3.3664 15.4827 3.41691 15.4827H5.83726C6.12371 15.4827 6.36711 15.274 6.41223 14.9913L6.43582 14.868L6.89199 11.977L6.92097 11.8172C6.94266 11.6802 7.01253 11.5554 7.11801 11.4653C7.22349 11.3753 7.35765 11.3258 7.49636 11.3258H7.85856C10.2032 11.3258 12.039 10.3737 12.5755 7.61851C12.799 6.46774 12.6831 5.50615 12.0912 4.831C11.9032 4.62168 11.6786 4.44844 11.4284 4.31978Z" fill="#009CDE"/>
<path d="M10.786 4.0646C10.6925 4.03687 10.596 4.01203 10.4967 3.99009C10.3973 3.96815 10.2947 3.9487 10.1895 3.93214C9.82112 3.87212 9.41877 3.84397 8.98661 3.84397H5.34098C5.20222 3.8438 5.06797 3.89329 4.96252 3.98348C4.85706 4.07367 4.78736 4.19862 4.76601 4.33574L3.9911 9.24928L3.96875 9.39209C3.99295 9.23573 4.07225 9.09318 4.19234 8.99017C4.31243 8.88716 4.46539 8.83048 4.62361 8.83036H5.98839C8.6687 8.83036 10.7674 7.74169 11.3805 4.59238C11.3987 4.49924 11.414 4.40901 11.4281 4.32001C11.2662 4.23529 11.0975 4.16413 10.9239 4.10724C10.8788 4.09234 10.8328 4.07826 10.786 4.06419" fill="#012169"/>
</svg>
