<svg width="56" height="18" viewBox="0 0 56 18" fill="none" xmlns="http://www.w3.org/2000/svg">
<g clip-path="url(#clip0_1507_8066)">
<path fill-rule="evenodd" clip-rule="evenodd" d="M40.1846 4.50284C41.4528 4.50284 42.4808 3.55907 42.4808 2.39528C42.4808 1.23081 41.4528 0.286133 40.1846 0.286133C38.9178 0.286133 37.8903 1.23081 37.8903 2.39528C37.8903 3.55907 38.9178 4.50284 40.1846 4.50284ZM22.5983 5.64103C22.4947 5.88009 21.749 7.81498 19.9454 9.82035V1.24576L15.1397 2.11815V17.6605H19.9454V12.8563C21.3372 14.7737 22.0245 17.6605 22.0245 17.6605H27.7807C27.2113 15.4864 24.7207 11.4774 24.7207 11.4774C26.956 8.87432 27.9378 6.10056 28.094 5.64103H22.5983ZM35.2321 5.47879C30.9278 5.60568 28.7428 7.37947 28.7428 10.9055V17.6605H33.4387V12.152C33.4387 10.0406 33.7396 9.13558 36.4673 9.04925V5.54065C36.0082 5.45114 35.2321 5.47879 35.2321 5.47879ZM7.08017 7.3525C6.49156 7.31693 5.12881 7.23603 5.12881 6.10918C5.12881 4.74938 7.09078 4.74938 7.82668 4.74938C9.1206 4.74938 10.7964 5.1006 11.9931 5.42939C11.9931 5.42939 12.6607 5.64556 13.2288 5.86694L13.2816 5.88009V2.156L13.2091 2.13628C11.7968 1.68241 10.1545 1.24576 7.10978 1.24576C1.86009 1.24576 0 4.05486 0 6.4613C0 7.84852 0.64733 11.1133 6.65956 11.4899C7.16923 11.5187 8.52187 11.5903 8.52187 12.7548C8.52187 13.7162 7.41445 14.2831 5.55189 14.2831C3.51073 14.2831 1.53075 13.805 0.328106 13.3516V17.1872C2.12849 17.6207 4.15806 17.8373 6.5367 17.8373C11.6697 17.8373 13.9687 15.1796 13.9687 12.5454C13.9687 9.55863 11.3961 7.61807 7.08017 7.3525ZM37.8567 17.6605H42.5146V5.65463H37.8567V17.6605ZM51.2851 2.0112V17.6605H55.9437V1.24576L51.2851 2.0112ZM44.4877 2.0112L49.1418 1.24576V17.6605H44.4877V2.0112Z" fill="url(#paint0_linear_1507_8066)"/>
</g>
<defs>
<linearGradient id="paint0_linear_1507_8066" x1="15.1294" y1="0.286133" x2="18.6931" y2="22.0393" gradientUnits="userSpaceOnUse">
<stop stop-color="#6B195F"/>
<stop offset="1" stop-color="#4C255B"/>
</linearGradient>
<clipPath id="clip0_1507_8066">
<rect width="56" height="17.6744" fill="white" transform="translate(0 0.162842)"/>
</clipPath>
</defs>
</svg>
