<svg width="40" height="40" viewBox="0 0 40 40" fill="none" xmlns="http://www.w3.org/2000/svg">
<path fill-rule="evenodd" clip-rule="evenodd" d="M17.0666 18.9332H1.86666C0.840092 18.9332 0 18.0931 0 17.0666V1.86666C0 0.840092 0.840092 0 1.86666 0H17.0666C18.0931 0 18.9332 0.840092 18.9332 1.86666V17.0666C18.9332 18.0931 18.0931 18.9332 17.0666 18.9332Z" fill="#DB46B1"/>
<path fill-rule="evenodd" clip-rule="evenodd" d="M21.0674 17.0666V1.86666C21.0674 0.840092 21.9075 0 22.934 0H38.134C39.1605 0 40.0006 0.840092 40.0006 1.86666V17.0666C40.0006 18.0931 39.1605 18.9332 38.134 18.9332H22.934C21.9075 18.9332 21.0674 18.0931 21.0674 17.0666Z" fill="white"/>
<path fill-rule="evenodd" clip-rule="evenodd" d="M22.934 21.0669H38.134C39.1605 21.0669 40.0006 21.907 40.0006 22.9336V38.1335C40.0006 39.16 39.1605 40.0001 38.134 40.0001H22.934C21.9075 40.0001 21.0674 39.16 21.0674 38.1335V22.9336C21.0674 21.907 21.9075 21.0669 22.934 21.0669Z" fill="#DB46B1"/>
<path fill-rule="evenodd" clip-rule="evenodd" d="M18.9332 22.9336V38.1335C18.9332 39.16 18.0931 40.0001 17.0666 40.0001H1.86666C0.840092 40.0001 0 39.16 0 38.1335V22.9336C0 21.907 0.840092 21.0669 1.86666 21.0669H17.0666C18.0931 21.0669 18.9332 21.907 18.9332 22.9336Z" fill="white"/>
<path fill-rule="evenodd" clip-rule="evenodd" d="M9.46619 6.03163L9.48092 6.0092C10.0096 5.17359 10.9413 4.61865 12.0031 4.61865C13.6506 4.61865 14.9861 5.95409 14.9861 7.6016C14.9861 9.80277 11.1893 11.49 9.46619 14.3134C7.74306 11.4894 3.94629 9.80277 3.94629 7.6016C3.94629 5.95409 5.28173 4.61865 6.92924 4.61865C7.99105 4.61865 8.92279 5.17359 9.45145 6.0092L9.46619 6.03163Z" fill="white"/>
<path d="M30.5328 35.3809C32.7762 35.3809 34.5948 33.2105 34.5948 30.5332C34.5948 27.8559 32.7762 25.6855 30.5328 25.6855C28.2893 25.6855 26.4707 27.8559 26.4707 30.5332C26.4707 33.2105 28.2893 35.3809 30.5328 35.3809Z" fill="white"/>
<path fill-rule="evenodd" clip-rule="evenodd" d="M30.5319 11.2577L30.5447 11.2398C31.0055 11.9056 31.8174 12.3484 32.7421 12.3484C34.1768 12.3484 35.3405 11.284 35.3405 9.97035C35.3405 8.21519 32.0333 6.87078 30.5326 4.61963C29.0318 6.87078 25.7246 8.21519 25.7246 9.97035C25.7246 11.2834 26.8877 12.3484 28.3231 12.3484C29.2478 12.3484 30.0597 11.9062 30.5204 11.2398L30.5319 11.2577Z" fill="#18191F"/>
<path fill-rule="evenodd" clip-rule="evenodd" d="M30.5324 10.863C30.453 10.8117 30.3504 10.8643 30.2236 11.0206C30.2934 12.1965 29.9531 13.3608 29.2617 14.3144H30.4722H30.5927H31.8032C31.1117 13.3602 30.7715 12.1965 30.8413 11.0206C30.7151 10.8643 30.6119 10.8117 30.5324 10.863Z" fill="#18191F"/>
<path fill-rule="evenodd" clip-rule="evenodd" d="M9.46757 25.4531C10.7972 25.4531 11.8751 26.531 11.8751 27.8606C11.8751 28.1048 11.8385 28.34 11.7713 28.5617C11.8014 28.5604 11.8315 28.5597 11.8616 28.5597C13.1913 28.5597 14.2691 29.6376 14.2691 30.9673C14.2691 32.2969 13.1913 33.3748 11.8616 33.3748C10.9517 33.3748 10.1596 32.8698 9.75016 32.1245C9.79117 33.2581 10.1007 34.8601 10.646 35.6125H9.52332H9.41182H8.28913C8.83445 34.8601 9.14396 33.2588 9.18497 32.1245C8.7755 32.8698 7.98346 33.3748 7.07352 33.3748C5.74385 33.3748 4.66602 32.2969 4.66602 30.9673C4.66602 29.6376 5.74385 28.5597 7.07352 28.5597C7.10364 28.5597 7.13376 28.5604 7.16387 28.5617C7.09659 28.34 7.06006 28.1041 7.06006 27.8606C7.06006 26.531 8.1379 25.4531 9.46757 25.4531Z" fill="#18191F"/>
</svg>
