<svg width="42" height="14" viewBox="0 0 42 14" fill="none" xmlns="http://www.w3.org/2000/svg">
<path fill-rule="evenodd" clip-rule="evenodd" d="M25.7691 8.05917C25.7691 8.53397 25.7691 9.00876 25.7691 9.48356C25.7691 9.67501 25.7308 9.86645 25.6466 10.0426C25.4858 10.4178 25.1948 10.6169 24.7812 10.6399C24.7506 10.6399 24.72 10.6399 24.697 10.6399C24.0231 10.6399 23.3568 10.6399 22.6829 10.6399C22.5528 10.6399 22.4226 10.6246 22.3 10.6016C21.8788 10.5097 21.6185 10.234 21.5189 9.81285C21.4883 9.675 21.4653 9.5295 21.4653 9.384C21.4577 8.48036 21.4653 7.58438 21.4653 6.68073C21.4653 6.60415 21.4806 6.52758 21.4959 6.45865C21.5419 6.30549 21.6415 6.23657 21.7946 6.23657C21.9784 6.23657 22.1622 6.23657 22.346 6.23657C22.5298 6.23657 22.7059 6.23657 22.8897 6.23657C22.9586 6.23657 23.0275 6.25189 23.0888 6.27486C23.2343 6.32847 23.3109 6.451 23.3109 6.61181C23.3109 7.29337 23.3109 7.96728 23.3109 8.64884C23.3109 8.72542 23.3185 8.802 23.3339 8.87092C23.3645 9.01642 23.4641 9.10066 23.6019 9.10832C23.7627 9.11597 23.8852 9.04705 23.9312 8.90155C23.9542 8.83263 23.9618 8.76371 23.9618 8.68713C23.9618 8.01322 23.9618 7.33166 23.9618 6.65776C23.9618 6.58118 23.9695 6.5046 23.9771 6.43568C23.9925 6.32081 24.069 6.25954 24.1762 6.24423C24.2145 6.23657 24.2528 6.23657 24.2911 6.23657C24.6357 6.23657 24.9727 6.23657 25.3173 6.23657C25.3709 6.23657 25.4245 6.24423 25.4704 6.25189C25.6236 6.27486 25.7232 6.38207 25.7385 6.53523C25.7461 6.57352 25.7461 6.61181 25.7461 6.65776C25.7768 7.13256 25.7768 7.59203 25.7691 8.05917C25.7768 8.05917 25.7691 8.05917 25.7691 8.05917Z" fill="#081C15"/>
<path fill-rule="evenodd" clip-rule="evenodd" d="M14.8799 4.67456C15.615 4.67456 16.3502 4.67456 17.0777 4.67456C17.1466 4.67456 17.2156 4.68222 17.2845 4.68988C17.3917 4.71285 17.4376 4.76646 17.4376 4.87367C17.4376 4.97322 17.4376 5.07278 17.4376 5.16467C17.4376 5.40973 17.4376 5.65478 17.4376 5.89984C17.4376 6.06066 17.3994 6.09895 17.2385 6.1066C17.0241 6.11426 16.8097 6.1066 16.6029 6.1066C16.4191 6.1066 16.243 6.1066 16.0592 6.1066C16.0439 6.1066 16.0286 6.1066 16.0133 6.1066C15.8678 6.11426 15.8371 6.14489 15.8371 6.2904C15.8371 7.62288 15.8371 8.94772 15.8371 10.2802C15.8371 10.3262 15.8371 10.3798 15.8295 10.4257C15.8218 10.5099 15.7759 10.5712 15.6916 10.5942C15.6304 10.6095 15.5768 10.6248 15.5155 10.6248C15.2934 10.6325 15.0713 10.6248 14.8492 10.6248C14.6042 10.6248 14.3668 10.6248 14.1217 10.6248C14.0681 10.6248 14.0145 10.6172 13.9609 10.6018C13.892 10.5865 13.8537 10.5406 13.8384 10.4717C13.8307 10.4257 13.8307 10.3721 13.8307 10.3262C13.8307 9.00132 13.8307 7.67649 13.8307 6.35166C13.8307 6.31337 13.8307 6.26742 13.8307 6.22913C13.8231 6.16021 13.8001 6.12958 13.7312 6.12192C13.6929 6.11426 13.6546 6.11426 13.6163 6.11426C13.2717 6.11426 12.9348 6.11426 12.5901 6.11426C12.5442 6.11426 12.4906 6.11426 12.4446 6.1066C12.3681 6.09129 12.3298 6.053 12.3221 5.97642C12.3221 5.94579 12.3145 5.9075 12.3145 5.87686C12.3145 5.57055 12.3145 5.26423 12.3145 4.95025C12.3145 4.75114 12.3757 4.68988 12.5748 4.68222C12.6131 4.68222 12.6591 4.68222 12.6974 4.68222C13.4249 4.67456 14.1524 4.67456 14.8799 4.67456Z" fill="#081C15"/>
<path fill-rule="evenodd" clip-rule="evenodd" d="M39.095 8.20483C39.1869 7.97509 39.2788 7.73769 39.3783 7.50795C39.5008 7.20163 39.6234 6.90297 39.7459 6.59665C39.7918 6.48944 39.8531 6.38989 39.945 6.32096C40.0063 6.27502 40.0828 6.24438 40.1594 6.24438C40.4887 6.24438 40.818 6.24438 41.155 6.24438C41.2162 6.24438 41.2775 6.25204 41.3311 6.26736C41.4153 6.29033 41.446 6.3516 41.423 6.43583C41.4153 6.47412 41.4 6.51241 41.3847 6.5507C40.6266 8.33501 39.8684 10.1193 39.1103 11.896C39.072 11.9879 39.0184 12.0721 38.9495 12.1487C38.8729 12.2253 38.781 12.2636 38.6738 12.2636C38.3828 12.2636 38.0994 12.2636 37.8084 12.2636C37.7548 12.2636 37.7012 12.2559 37.6553 12.2482C37.5251 12.2253 37.4791 12.1563 37.5174 12.0338C37.5251 11.9955 37.5404 11.9649 37.5557 11.9266C37.7395 11.4824 37.931 11.0383 38.1224 10.5941C38.1454 10.5405 38.1454 10.5022 38.1224 10.4486C37.6017 9.16208 37.0809 7.87554 36.5602 6.58899C36.5449 6.5507 36.5295 6.51241 36.5219 6.47412C36.4913 6.35925 36.5372 6.28268 36.6597 6.2597C36.7133 6.25204 36.7593 6.24438 36.8129 6.24438C37.2341 6.24438 37.6553 6.24438 38.0841 6.24438C38.199 6.24438 38.2985 6.28268 38.3751 6.36691C38.444 6.43583 38.49 6.52007 38.5206 6.60431C38.6968 7.10974 38.8729 7.61517 39.0567 8.11293C39.0643 8.14357 39.0797 8.16654 39.0873 8.19717C39.0797 8.20483 39.0873 8.20483 39.095 8.20483Z" fill="#081C15"/>
<path fill-rule="evenodd" clip-rule="evenodd" d="M28.3584 10.7547C27.7381 10.7393 27.2326 10.6934 26.7272 10.5632C26.6736 10.5479 26.62 10.5249 26.5587 10.5173C26.5051 10.5019 26.4822 10.4713 26.4668 10.4177C26.4286 10.2339 26.4209 10.0501 26.4209 9.86633C26.4209 9.75912 26.4362 9.6519 26.4515 9.55235C26.4515 9.52938 26.4592 9.5064 26.4668 9.48343C26.5051 9.35324 26.5358 9.33793 26.666 9.36856C27.0718 9.47577 27.493 9.5064 27.9142 9.49109C27.9908 9.49109 28.0597 9.47577 28.1363 9.46045C28.1746 9.4528 28.2205 9.42982 28.2512 9.40685C28.3277 9.34559 28.3277 9.25369 28.2588 9.19242C28.2129 9.15413 28.1593 9.11585 28.098 9.09287C27.9984 9.03927 27.8912 9.00098 27.784 8.95503C27.6079 8.87079 27.4318 8.79421 27.2556 8.69466C27.0718 8.5951 26.911 8.47258 26.7885 8.3041C26.4975 7.91354 26.4286 7.49235 26.6047 7.03288C26.6813 6.81845 26.8421 6.65763 27.0259 6.53511C27.2709 6.35897 27.5543 6.25942 27.8453 6.1905C28.1976 6.11392 28.5498 6.0986 28.9097 6.10626C29.1778 6.11392 29.4458 6.12157 29.7062 6.17518C29.7674 6.1905 29.8287 6.21347 29.89 6.22113C29.9512 6.23644 29.9819 6.27473 29.9895 6.336C29.9895 6.44321 29.9972 6.55042 29.9895 6.65763C29.9742 6.81079 29.9436 6.95629 29.89 7.1018C29.8823 7.12477 29.8746 7.14774 29.867 7.16306C29.7981 7.30856 29.7598 7.32388 29.6066 7.30856C29.3692 7.27793 29.1242 7.2473 28.8868 7.22432C28.8102 7.21667 28.7336 7.22432 28.6647 7.22432C28.6187 7.22432 28.5728 7.23964 28.5268 7.2473C28.4656 7.26261 28.4196 7.3009 28.412 7.36983C28.4043 7.43875 28.4426 7.46938 28.4886 7.50001C28.5651 7.54596 28.6417 7.59191 28.7183 7.6302C28.8944 7.72209 29.0782 7.79867 29.2543 7.89057C29.4688 8.00544 29.6602 8.13562 29.8287 8.31176C30.135 8.61808 30.2729 8.99332 30.2422 9.42216C30.2346 9.54469 30.2116 9.67488 30.181 9.79741C30.0891 10.1114 29.89 10.3411 29.6066 10.5019C29.3845 10.6245 29.1395 10.6934 28.8868 10.724C28.68 10.7393 28.4732 10.747 28.3584 10.7547Z" fill="#081C15"/>
<path fill-rule="evenodd" clip-rule="evenodd" d="M31.107 7.43896C31.0381 7.43896 30.9768 7.43896 30.9079 7.43896C30.8619 7.43896 30.8236 7.43896 30.7777 7.4313C30.7011 7.42364 30.6475 7.37769 30.6245 7.30877C30.6092 7.26282 30.6016 7.21687 30.6016 7.17093C30.6016 6.94885 30.6016 6.73442 30.6016 6.51234C30.6016 6.50468 30.6016 6.48937 30.6016 6.47405C30.6169 6.32855 30.6935 6.25197 30.8313 6.24431C30.9155 6.23665 31.0074 6.24431 31.0917 6.24431C31.1223 6.24431 31.1529 6.24431 31.1912 6.24431C31.1912 6.21368 31.1989 6.18305 31.1989 6.15242C31.1989 5.99926 31.1989 5.8461 31.1989 5.69294C31.1989 5.56275 31.2525 5.4632 31.3674 5.40959C31.4286 5.37896 31.4975 5.34833 31.5665 5.33301C31.9034 5.27175 32.248 5.21814 32.585 5.16454C32.6309 5.15688 32.6769 5.16454 32.7228 5.16454C32.7917 5.17219 32.83 5.21814 32.8377 5.28706C32.8454 5.34833 32.853 5.40959 32.853 5.47086C32.853 5.7006 32.853 5.93799 32.853 6.16773C32.853 6.1907 32.853 6.20602 32.8607 6.23665C32.8836 6.23665 32.9143 6.24431 32.9372 6.24431C33.0751 6.24431 33.2206 6.24431 33.3584 6.24431C33.481 6.24431 33.5575 6.29026 33.5882 6.41279C33.6112 6.47405 33.6188 6.55063 33.6188 6.61189C33.6265 6.811 33.6188 7.00245 33.6188 7.20156C33.6188 7.21687 33.6188 7.23985 33.6188 7.25516C33.6111 7.40067 33.5575 7.45427 33.412 7.45427C33.2665 7.45427 33.121 7.45427 32.9832 7.45427C32.9602 7.45427 32.9372 7.45427 32.9143 7.46193C32.9143 7.49256 32.9066 7.52319 32.9066 7.55383C32.9066 8.09754 32.9066 8.64126 32.9066 9.18498C32.9066 9.3458 32.9602 9.41472 33.121 9.43769C33.1746 9.44535 33.2283 9.44535 33.2819 9.44535C33.3431 9.44535 33.3584 9.44535 33.3814 9.50661C33.4044 9.59085 33.4274 9.67509 33.4503 9.75933C33.4963 9.98141 33.5193 10.2035 33.5193 10.4256C33.5193 10.4562 33.5193 10.4868 33.5193 10.5098C33.5193 10.5711 33.4963 10.6017 33.4427 10.617C33.2972 10.6477 33.144 10.6859 32.9985 10.7089C32.7458 10.7472 32.4854 10.7625 32.2251 10.7319C31.9341 10.6936 31.666 10.6017 31.4516 10.3873C31.2601 10.1958 31.1529 9.95843 31.1223 9.6904C31.107 9.5449 31.107 9.39174 31.107 9.24624C31.107 8.66423 31.107 8.08223 31.107 7.50022C31.107 7.48491 31.107 7.46959 31.107 7.43896Z" fill="#081C15"/>
<path fill-rule="evenodd" clip-rule="evenodd" d="M34.2773 7.62258C34.2773 6.71128 34.2773 5.80764 34.2773 4.89634C34.2773 4.85805 34.2773 4.82742 34.2773 4.78913C34.285 4.67426 34.3616 4.59768 34.4764 4.58237C34.5071 4.58237 34.5377 4.57471 34.5683 4.57471C34.9359 4.57471 35.2959 4.57471 35.6634 4.57471C35.74 4.57471 35.8166 4.58236 35.8855 4.59768C36.008 4.62065 36.0463 4.67426 36.054 4.78913C36.054 4.81976 36.054 4.85039 36.054 4.88103C36.054 6.68065 36.054 8.48028 36.054 10.2876C36.054 10.3335 36.054 10.3795 36.0463 10.4254C36.031 10.5479 35.9698 10.6092 35.8549 10.6245C35.8166 10.6322 35.7783 10.6322 35.74 10.6322C35.3495 10.6322 34.9589 10.6322 34.5683 10.6322C34.5147 10.6322 34.4535 10.6322 34.3999 10.6169C34.3309 10.6092 34.2927 10.5632 34.285 10.4943C34.2773 10.456 34.2773 10.4177 34.2773 10.3795C34.2773 9.83574 34.2773 9.29202 34.2773 8.74831C34.2773 8.38072 34.2773 7.99782 34.2773 7.62258Z" fill="#081C15"/>
<path fill-rule="evenodd" clip-rule="evenodd" d="M17.7285 8.66397C17.7285 8.19684 17.7285 7.7297 17.7285 7.25491C17.7285 7.14769 17.7362 7.04048 17.7591 6.94093C17.8051 6.68056 17.9583 6.49677 18.2033 6.3819C18.3641 6.31297 18.5326 6.27468 18.7011 6.26703C18.9002 6.25937 19.107 6.25171 19.3061 6.25171C19.7809 6.25171 20.2556 6.25171 20.7304 6.25171C20.7381 6.25171 20.7534 6.25171 20.7687 6.25171C20.9066 6.25171 20.9449 6.29 20.9449 6.42784C20.9449 6.71885 20.9449 7.01751 20.9449 7.30851C20.9449 7.33149 20.9449 7.3468 20.9449 7.36977C20.9372 7.45401 20.8836 7.50762 20.7994 7.51528C20.7304 7.52293 20.6692 7.52293 20.6003 7.52293C20.4548 7.53059 20.3093 7.54591 20.1638 7.56122C20.0412 7.57654 19.934 7.62249 19.8268 7.68375C19.643 7.79096 19.5435 7.95178 19.5281 8.15855C19.5281 8.20449 19.5281 8.2581 19.5281 8.30405C19.5281 8.95498 19.5281 9.60591 19.5281 10.2568C19.5281 10.3181 19.5205 10.3794 19.5128 10.4406C19.4899 10.5632 19.4133 10.6321 19.2907 10.6397C19.2678 10.6397 19.2525 10.6397 19.2295 10.6397C18.8619 10.6397 18.502 10.6397 18.1344 10.6397C18.0808 10.6397 18.0272 10.6321 17.9812 10.6168C17.851 10.5861 17.7745 10.4942 17.7515 10.364C17.7438 10.3104 17.7362 10.2492 17.7362 10.1956C17.7285 9.68249 17.7285 9.1694 17.7285 8.66397Z" fill="#081C15"/>
<path fill-rule="evenodd" clip-rule="evenodd" d="M8.94432 4.67404C8.99792 4.67404 9.03621 4.6817 9.06685 4.6817C9.50335 4.6817 9.9322 4.6817 10.3687 4.6817C10.5219 4.6817 10.675 4.71234 10.8205 4.78126C11.0886 4.9191 11.1804 5.13352 11.1268 5.41687C11.0349 5.87635 10.9277 6.32817 10.8205 6.78765C10.6367 7.61471 10.4529 8.43411 10.2692 9.26118C10.2155 9.49092 10.1696 9.72831 10.116 9.95805C10.0624 10.1954 9.94751 10.3869 9.72543 10.5094C9.59525 10.586 9.44975 10.609 9.30424 10.6166C9.22001 10.6243 9.12811 10.6166 9.04387 10.6166C6.83837 10.6166 4.63287 10.6166 2.43503 10.6166C2.25124 10.6166 2.07511 10.5783 1.92195 10.4711C1.75347 10.3563 1.65392 10.1954 1.60797 10.004C1.53905 9.70534 1.47013 9.40668 1.4012 9.10802C1.15615 8.00527 0.903435 6.90252 0.658379 5.79211C0.627747 5.66958 0.597115 5.54706 0.581799 5.42453C0.566484 5.33263 0.566484 5.24074 0.581799 5.14884C0.604773 4.99568 0.704327 4.88847 0.834513 4.80423C0.987673 4.71233 1.16381 4.67404 1.33994 4.67404C1.76879 4.67404 2.20529 4.67404 2.63414 4.67404C2.76433 4.67404 2.76432 4.67405 2.76432 4.54386C2.76432 4.28349 2.76432 4.02312 2.76432 3.7704C2.75667 2.33836 3.75221 1.09777 5.14596 0.760815C5.49057 0.676577 5.83518 0.661261 6.18744 0.699551C6.78477 0.760815 7.31317 0.982897 7.7803 1.35814C8.347 1.81762 8.71458 2.40728 8.8754 3.11947C8.92134 3.32624 8.94432 3.54066 8.94432 3.75509C8.94432 4.02312 8.94432 4.29114 8.94432 4.55917C8.94432 4.59746 8.94432 4.6281 8.94432 4.67404ZM5.85049 4.6817C6.47079 4.6817 7.09874 4.6817 7.71904 4.6817C7.74201 4.6817 7.77265 4.6817 7.79562 4.6817C7.84923 4.6817 7.85688 4.67404 7.86454 4.61278C7.86454 4.58981 7.86454 4.56683 7.86454 4.54386C7.86454 4.27583 7.86454 4.0078 7.86454 3.73977C7.86454 3.60193 7.85688 3.47174 7.83391 3.3339C7.74967 2.85144 7.51993 2.44557 7.13703 2.13925C6.69287 1.77167 6.17979 1.62617 5.60544 1.68743C5.30678 1.71806 5.03109 1.81762 4.78603 1.97843C4.17339 2.37665 3.85942 2.951 3.83644 3.67851C3.82878 3.96951 3.83644 4.26051 3.83644 4.55152C3.83644 4.67405 3.83644 4.67404 3.95897 4.67404C4.59458 4.6817 5.22254 4.6817 5.85049 4.6817ZM5.85049 5.9223C5.85049 5.9223 5.85049 5.92995 5.85049 5.9223C5.45228 5.9223 5.05406 5.9223 4.65585 5.9223C4.52566 5.9223 4.47971 5.96824 4.47971 6.09843C4.47971 6.23627 4.47971 6.37412 4.47971 6.51196C4.47971 6.68043 4.50269 6.70341 4.67116 6.71107C4.82432 6.71107 4.97748 6.71107 5.13064 6.71107C5.27614 6.71107 5.27614 6.71107 5.27614 6.85657C5.27614 7.51516 5.27614 8.17374 5.27614 8.83233C5.27614 8.87062 5.27614 8.91657 5.2838 8.95486C5.29912 9.04675 5.32975 9.08504 5.42165 9.08504C5.6667 9.0927 5.9041 9.0927 6.14915 9.0927C6.17979 9.0927 6.21042 9.0927 6.24105 9.08504C6.30997 9.07738 6.34826 9.03909 6.36358 8.97017C6.37124 8.93188 6.37124 8.89359 6.37124 8.84764C6.37124 8.17374 6.37124 7.5075 6.37124 6.8336C6.37124 6.71873 6.37124 6.71107 6.49376 6.71107C6.6699 6.71107 6.84603 6.71107 7.02216 6.71107C7.06045 6.71107 7.09874 6.70341 7.14469 6.69575C7.18298 6.68809 7.20596 6.66512 7.21361 6.62683C7.22127 6.60386 7.22127 6.57322 7.22127 6.55025C7.22127 6.39709 7.22127 6.25159 7.22127 6.09843C7.22127 5.96059 7.17532 5.9223 7.04514 5.9223C7.02216 5.9223 6.99919 5.9223 6.97622 5.9223C6.59332 5.9223 6.22573 5.9223 5.85049 5.9223Z" fill="#87BD5C"/>
<path fill-rule="evenodd" clip-rule="evenodd" d="M6.73078 12.0869C6.71546 11.4513 7.26684 10.8769 7.95606 10.8846C8.60699 10.8923 9.15836 11.436 9.15836 12.1099C9.1507 12.7838 8.59167 13.3352 7.91011 13.3198C7.28981 13.3045 6.71546 12.7761 6.73078 12.0869Z" fill="#87BD5C"/>
<path fill-rule="evenodd" clip-rule="evenodd" d="M4.98504 12.1024C5.00036 12.761 4.44133 13.32 3.76742 13.32C3.09352 13.32 2.5498 12.761 2.5498 12.1024C2.5498 11.4285 3.1165 10.8848 3.76742 10.8924C4.42601 10.8848 4.9927 11.4285 4.98504 12.1024Z" fill="#87BD5C"/>
</svg>
