<svg width="50" height="16" viewBox="0 0 50 16" fill="none" xmlns="http://www.w3.org/2000/svg">
<path d="M23.0458 12.85H20.7822L22.1969 4.15536H24.4608L23.0458 12.85ZM18.8778 4.15536L16.7197 10.1356L16.4644 8.84783L16.4646 8.84829L15.7029 4.93821C15.7029 4.93821 15.6108 4.15536 14.6291 4.15536H11.0614L11.0195 4.30258C11.0195 4.30258 12.1105 4.52958 13.3874 5.29638L15.3541 12.8502H17.7126L21.3141 4.15536H18.8778ZM36.6827 12.85H38.7612L36.949 4.15513H35.1293C34.289 4.15513 34.0844 4.80309 34.0844 4.80309L30.7083 12.85H33.068L33.5399 11.5585H36.4176L36.6827 12.85ZM34.1918 9.77441L35.3812 6.52067L36.0503 9.77441H34.1918ZM30.8853 6.24623L31.2083 4.3791C31.2083 4.3791 30.2115 4 29.1724 4C28.049 4 25.3814 4.49097 25.3814 6.87837C25.3814 9.12459 28.5123 9.1525 28.5123 10.3324C28.5123 11.5122 25.7039 11.3008 24.7771 10.5568L24.4406 12.5091C24.4406 12.5091 25.4514 13 26.9957 13C28.5404 13 30.8709 12.2002 30.8709 10.0233C30.8709 7.76263 27.7118 7.55214 27.7118 6.56927C27.712 5.58617 29.9166 5.71246 30.8853 6.24623Z" fill="#2566AF"/>
<path d="M16.5026 9L15.7607 5C15.7607 5 15.5618 4 14.48 4H10.7607H10.2607C10.2607 4 12.1902 4.58138 14.0026 6C15.7355 7.35593 16.5026 9 16.5026 9Z" fill="#E6A540"/>
</svg>
