<svg width="42" height="12" viewBox="0 0 42 12" fill="none" xmlns="http://www.w3.org/2000/svg">
<path d="M7.6862 1.4764C7.19291 0.914166 6.30123 0.673122 5.16055 0.673122H1.84989C1.73697 0.673062 1.62773 0.713305 1.54184 0.78661C1.45595 0.859915 1.39904 0.961468 1.38136 1.07299L0.00346 9.81626C-0.00292909 9.85682 -0.000449259 9.89829 0.0107288 9.9378C0.0219069 9.97731 0.0415174 10.0139 0.0682092 10.0451C0.0949011 10.0763 0.12804 10.1014 0.165342 10.1185C0.202644 10.1357 0.243224 10.1446 0.284284 10.1445H2.32814L2.84146 6.88868L2.82555 6.99064C2.8429 6.87933 2.89943 6.77788 2.98495 6.70457C3.07048 6.63125 3.17937 6.5909 3.29202 6.59076H4.26327C6.17128 6.59076 7.66528 5.81577 8.10169 3.57389C8.11465 3.50759 8.12585 3.44306 8.13558 3.38C8.26523 2.55137 8.13469 1.98737 7.68649 1.4767" fill="#003087"/>
<path d="M32.7081 5.63727C32.5831 6.45764 31.9567 6.45764 31.3508 6.45764H31.0061L31.248 4.92593C31.2627 4.8334 31.3423 4.76533 31.436 4.76533H31.5942C32.0068 4.76533 32.3963 4.76533 32.5973 5.00019C32.7172 5.14075 32.7535 5.34938 32.7081 5.63727ZM32.4444 3.49676H30.1589C30.0832 3.4968 30.01 3.52382 29.9524 3.57296C29.8948 3.62211 29.8567 3.69016 29.8447 3.76492L28.9212 9.62509C28.917 9.65226 28.9187 9.68003 28.9262 9.70649C28.9336 9.73295 28.9468 9.75747 28.9646 9.77838C28.9825 9.79929 29.0047 9.81609 29.0296 9.82763C29.0546 9.83916 29.0817 9.84516 29.1092 9.84521H30.282C30.3914 9.84521 30.4845 9.76565 30.5016 9.6578L30.7638 7.99584C30.788 7.84173 30.9212 7.72769 31.0774 7.72769H31.8005C33.3063 7.72769 34.175 6.99955 34.4019 5.55535C34.5041 4.92416 34.406 4.42793 34.1104 4.08051C33.7854 3.69861 33.2093 3.49647 32.4447 3.49647" fill="#009CDE"/>
<path d="M16.4064 5.63688C16.2814 6.45725 15.655 6.45725 15.0488 6.45725H14.7041L14.946 4.92553C14.9607 4.83301 15.0403 4.76494 15.134 4.76494H15.2922C15.7048 4.76494 16.0943 4.76494 16.2953 4.99979C16.4155 5.14035 16.4518 5.34898 16.4064 5.63688ZM16.1426 3.49637H13.8572C13.701 3.49637 13.5678 3.61011 13.5433 3.76452L12.6195 9.6247C12.6152 9.65187 12.6169 9.67966 12.6243 9.70614C12.6318 9.73262 12.6449 9.75717 12.6628 9.77809C12.6807 9.79901 12.7029 9.81581 12.7278 9.82733C12.7528 9.83885 12.78 9.84482 12.8075 9.84482H13.899C14.0552 9.84482 14.1881 9.73108 14.2125 9.57667L14.4621 7.99574C14.4863 7.84133 14.6195 7.72759 14.7757 7.72759H15.4988C17.0046 7.72759 17.8733 6.99915 18.1002 5.55496C18.2024 4.92377 18.1043 4.42754 17.8087 4.08011C17.4837 3.69822 16.9076 3.49607 16.1429 3.49607L16.1426 3.49637ZM21.4488 7.74085C21.3428 8.36615 20.8468 8.78606 20.2136 8.78606C19.8962 8.78606 19.6419 8.68381 19.4787 8.4905C19.3166 8.29896 19.2559 8.0258 19.3072 7.72199C19.4056 7.102 19.9101 6.66883 20.5336 6.66883C20.8445 6.66883 21.0964 6.77196 21.2632 6.96704C21.4309 7.16358 21.4969 7.43822 21.4488 7.74085ZM22.9741 5.61036H21.8797C21.8342 5.6103 21.7901 5.62652 21.7556 5.65608C21.721 5.68564 21.6981 5.72659 21.6911 5.77154L21.6433 6.07741L21.5667 5.96662C21.3298 5.62273 20.8014 5.50752 20.274 5.50752C19.0649 5.50752 18.0321 6.42395 17.8311 7.70873C17.7265 8.35023 17.875 8.96286 18.2387 9.39043C18.5725 9.78323 19.049 9.94678 19.6169 9.94678C20.5916 9.94678 21.1321 9.32089 21.1321 9.32089L21.0832 9.62499C21.0788 9.65219 21.0805 9.68 21.088 9.70651C21.0955 9.73301 21.1086 9.75757 21.1265 9.7785C21.1444 9.79942 21.1666 9.81622 21.1917 9.82772C21.2167 9.83922 21.2439 9.84516 21.2714 9.84512H22.2568C22.413 9.84512 22.5462 9.73167 22.5707 9.57696L23.1624 5.83077C23.1666 5.80356 23.1649 5.77574 23.1574 5.74924C23.1499 5.72274 23.1367 5.69818 23.1188 5.67726C23.1009 5.65634 23.0786 5.63955 23.0536 5.62805C23.0286 5.61656 23.0013 5.61062 22.9738 5.61065" fill="#003087"/>
<path d="M37.7501 7.74085C37.644 8.36615 37.148 8.78606 36.5148 8.78606C36.1974 8.78606 35.9431 8.6838 35.7799 8.4905C35.6178 8.29896 35.5571 8.0258 35.6084 7.72199C35.7068 7.102 36.211 6.66882 36.8348 6.66882C37.1457 6.66882 37.3976 6.77196 37.5644 6.96703C37.7321 7.16358 37.7981 7.43822 37.7501 7.74085ZM39.2753 5.61036H38.1809C38.1354 5.6103 38.0914 5.62652 38.0568 5.65608C38.0222 5.68564 37.9993 5.72659 37.9923 5.77154L37.9445 6.07741L37.8679 5.96662C37.631 5.62273 37.1027 5.50752 36.5752 5.50752C35.3664 5.50752 34.3336 6.42395 34.1323 7.70873C34.0277 8.35023 34.1765 8.96286 34.5402 9.39043C34.874 9.78323 35.3505 9.94678 35.9184 9.94678C36.8934 9.94678 37.4339 9.32089 37.4339 9.32089L37.385 9.62499C37.3806 9.65216 37.3821 9.67996 37.3895 9.70646C37.3969 9.73297 37.41 9.75754 37.4279 9.77848C37.4457 9.79942 37.4679 9.81623 37.4929 9.82773C37.5179 9.83924 37.5451 9.84517 37.5727 9.84512H38.5578C38.7139 9.84512 38.8471 9.73167 38.8719 9.57696L39.4636 5.83077C39.4678 5.80356 39.4662 5.77574 39.4586 5.74924C39.4511 5.72274 39.4379 5.69818 39.42 5.67726C39.4021 5.65634 39.3798 5.63955 39.3548 5.62805C39.3298 5.61656 39.3025 5.61062 39.275 5.61065" fill="#009CDE"/>
<path d="M28.8036 5.61092H27.7033C27.5981 5.61092 27.5 5.66308 27.4411 5.7503L25.9235 7.98511L25.2802 5.83753C25.2606 5.77202 25.2204 5.71458 25.1656 5.67371C25.1107 5.63285 25.0442 5.61073 24.9758 5.61063H23.8947C23.8643 5.61064 23.8345 5.61789 23.8075 5.63176C23.7806 5.64563 23.7573 5.66573 23.7397 5.6904C23.722 5.71506 23.7105 5.74357 23.7061 5.77357C23.7017 5.80356 23.7045 5.83418 23.7143 5.86287L24.9254 9.4184L23.7862 11.0258C23.7661 11.0544 23.7542 11.0879 23.7518 11.1227C23.7494 11.1576 23.7566 11.1924 23.7727 11.2234C23.7887 11.2544 23.813 11.2804 23.8428 11.2986C23.8727 11.3168 23.9069 11.3264 23.9418 11.3264H25.0409C25.1447 11.3264 25.2422 11.2754 25.3017 11.19L28.9598 5.91002C28.9797 5.88148 28.9913 5.84804 28.9935 5.81334C28.9957 5.77864 28.9884 5.74399 28.9723 5.71317C28.9562 5.68235 28.932 5.65652 28.9022 5.6385C28.8725 5.62047 28.8384 5.61093 28.8036 5.61092Z" fill="#003087"/>
<path d="M40.5655 3.6579L39.6273 9.62534C39.623 9.65253 39.6247 9.68032 39.6322 9.7068C39.6397 9.73328 39.6529 9.75782 39.6708 9.77874C39.6887 9.79965 39.7109 9.81645 39.7359 9.82796C39.7609 9.83948 39.7881 9.84545 39.8156 9.84546H40.7588C40.915 9.84546 41.0482 9.73171 41.0727 9.57731L41.9976 3.71683C42.002 3.68963 42.0003 3.66182 41.9928 3.63532C41.9853 3.60882 41.9722 3.58426 41.9543 3.56333C41.9364 3.5424 41.9142 3.52561 41.8891 3.51411C41.8641 3.50261 41.8369 3.49667 41.8094 3.49671H40.7538C40.7084 3.4966 40.6644 3.51276 40.6299 3.54228C40.5953 3.57179 40.5725 3.6127 40.5655 3.6576" fill="#009CDE"/>
<path d="M7.6862 1.4764C7.19291 0.914166 6.30123 0.673122 5.16055 0.673122H1.84989C1.73697 0.673062 1.62773 0.713305 1.54184 0.78661C1.45595 0.859915 1.39904 0.961468 1.38136 1.07299L0.00346 9.81626C-0.00292909 9.85682 -0.000449259 9.89829 0.0107288 9.9378C0.0219069 9.97731 0.0415174 10.0139 0.0682092 10.0451C0.0949011 10.0763 0.12804 10.1014 0.165342 10.1185C0.202644 10.1357 0.243224 10.1446 0.284284 10.1445H2.32814L2.84146 6.88868L2.82555 6.99064C2.8429 6.87933 2.89943 6.77788 2.98495 6.70457C3.07048 6.63125 3.17937 6.5909 3.29202 6.59076H4.26327C6.17128 6.59076 7.66528 5.81577 8.10169 3.57389C8.11465 3.50759 8.12585 3.44306 8.13558 3.38C8.26523 2.55137 8.13469 1.98737 7.68649 1.4767" fill="#003087"/>
<path d="M3.39314 3.3912C3.40863 3.29375 3.45834 3.20501 3.53335 3.1409C3.60837 3.0768 3.70377 3.04153 3.80244 3.04142H6.39793C6.70527 3.04142 6.99199 3.06146 7.25396 3.1033C7.39719 3.12634 7.53889 3.15803 7.67829 3.19818C7.8366 3.24269 7.98979 3.30373 8.13533 3.38029C8.26557 2.55138 8.13474 1.98766 7.68654 1.4767C7.19296 0.914756 6.30157 0.673713 5.16089 0.673713H1.84993C1.73711 0.673794 1.62802 0.7141 1.54225 0.787393C1.45648 0.860685 1.39966 0.96216 1.38199 1.07359L0.00350657 9.81597C-0.00292577 9.85653 -0.000488309 9.898 0.0106512 9.93752C0.0217906 9.97705 0.0413671 10.0137 0.0680317 10.0449C0.0946962 10.0761 0.127815 10.1012 0.165105 10.1184C0.202396 10.1356 0.242971 10.1445 0.284036 10.1445H2.32819L2.84151 6.88838L3.39314 3.3912Z" fill="#003087"/>
<path d="M8.13553 3.37995C8.12542 3.44478 8.11412 3.50942 8.10164 3.57384C7.66523 5.81542 6.17123 6.59071 4.26322 6.59071H3.29168C3.17905 6.59079 3.07016 6.63114 2.98467 6.70447C2.89919 6.7778 2.84273 6.87928 2.82551 6.99058L2.3281 10.1442L2.18665 11.0388C2.18103 11.0743 2.18318 11.1106 2.19294 11.1453C2.20271 11.1799 2.21986 11.2119 2.24322 11.2393C2.26658 11.2666 2.29559 11.2886 2.32826 11.3036C2.36092 11.3187 2.39645 11.3264 2.43241 11.3264H4.15537C4.35929 11.3264 4.53255 11.1779 4.56467 10.9766L4.58147 10.8888L4.9062 8.83082L4.92683 8.71708C4.94227 8.61955 4.992 8.53074 5.06709 8.46662C5.14218 8.4025 5.23768 8.36728 5.33642 8.3673H5.59426C7.2633 8.3673 8.57017 7.68955 8.95207 5.7282C9.1112 4.90901 9.02869 4.22448 8.6073 3.74387C8.4735 3.59486 8.31362 3.47153 8.13553 3.37995Z" fill="#009CDE"/>
<path d="M7.67818 3.19827C7.61158 3.17853 7.54292 3.16085 7.4722 3.14523C7.40148 3.12961 7.3284 3.11576 7.25355 3.10398C6.99129 3.06125 6.70487 3.04121 6.39723 3.04121H3.80204C3.70326 3.04109 3.60769 3.07632 3.53262 3.14052C3.45755 3.20473 3.40793 3.29368 3.39274 3.39128L2.84111 6.88906L2.8252 6.99072C2.84242 6.87942 2.89887 6.77794 2.98436 6.70461C3.06985 6.63128 3.17874 6.59093 3.29137 6.59085H4.26291C6.17092 6.59085 7.66492 5.81586 8.10133 3.57398C8.1143 3.50768 8.1252 3.44344 8.13522 3.38008C8.01997 3.31978 7.89992 3.26912 7.77631 3.22862C7.74419 3.21801 7.71148 3.20799 7.67818 3.19798" fill="#012169"/>
</svg>
