<svg width="24" height="18" viewBox="0 0 24 18" fill="none" xmlns="http://www.w3.org/2000/svg">
<g clip-path="url(#clip0_4020_287)">
<path d="M23.5275 17.7556V17.8019H23.5723C23.5807 17.802 23.589 17.8 23.5963 17.796C23.5992 17.794 23.6015 17.7913 23.6031 17.7882C23.6047 17.7851 23.6054 17.7817 23.6053 17.7783C23.6054 17.7749 23.6047 17.7715 23.6031 17.7685C23.6015 17.7655 23.5992 17.7629 23.5963 17.761C23.589 17.7569 23.5807 17.7548 23.5723 17.7551H23.5275V17.7556ZM23.5727 17.7229C23.5919 17.7217 23.6109 17.727 23.6265 17.7379C23.6327 17.7428 23.6377 17.7491 23.641 17.7562C23.6443 17.7633 23.6457 17.7711 23.6453 17.7789C23.6456 17.7855 23.6444 17.7922 23.6418 17.7984C23.6392 17.8046 23.6353 17.8102 23.6302 17.8148C23.6182 17.8249 23.6031 17.831 23.5873 17.8321L23.6473 17.898H23.6011L23.5459 17.8325H23.528V17.898H23.4893V17.723H23.5733L23.5727 17.7229ZM23.5607 17.9584C23.581 17.9586 23.6011 17.9546 23.6197 17.9468C23.6376 17.9394 23.6539 17.9288 23.6677 17.9155C23.6815 17.9022 23.6925 17.8865 23.7002 17.8692C23.7159 17.8325 23.7159 17.7913 23.7002 17.7547C23.6924 17.7374 23.6814 17.7218 23.6677 17.7084C23.6539 17.6951 23.6376 17.6845 23.6197 17.6771C23.601 17.6697 23.5809 17.666 23.5607 17.6662C23.5402 17.666 23.5198 17.6697 23.5007 17.6771C23.4824 17.6844 23.4658 17.695 23.4517 17.7084C23.4304 17.7294 23.4161 17.7559 23.4104 17.7847C23.4047 17.8135 23.4079 17.8433 23.4196 17.8704C23.4269 17.8877 23.4378 17.9035 23.4517 17.9166C23.4658 17.93 23.4824 17.9407 23.5007 17.948C23.5197 17.9558 23.5401 17.9597 23.5607 17.9596V17.9584ZM23.5607 17.6241C23.6135 17.624 23.6641 17.644 23.7017 17.6796C23.7199 17.6967 23.7343 17.7171 23.7442 17.7396C23.7545 17.7628 23.7598 17.7877 23.7598 17.8128C23.7598 17.838 23.7545 17.8629 23.7442 17.886C23.7341 17.9084 23.7197 17.9287 23.7017 17.946C23.6833 17.963 23.6619 17.9767 23.6385 17.9865C23.6139 17.9966 23.5875 18.0017 23.5607 18.0015C23.5337 18.0017 23.5069 17.9966 23.482 17.9865C23.4583 17.977 23.4367 17.9632 23.4183 17.946C23.4004 17.9281 23.3862 17.9071 23.3764 17.884C23.3662 17.8609 23.3609 17.836 23.3609 17.8108C23.3609 17.7857 23.3662 17.7608 23.3764 17.7377C23.3863 17.7152 23.4008 17.6947 23.4189 17.6776C23.4371 17.6601 23.4588 17.6463 23.4826 17.6372C23.5075 17.627 23.5343 17.6219 23.5613 17.6221L23.5607 17.6241ZM5.18636 16.9482C5.18636 16.6144 5.41316 16.3403 5.78384 16.3403C6.13808 16.3403 6.37712 16.6026 6.37712 16.9482C6.37712 17.2937 6.13808 17.5561 5.78384 17.5561C5.41316 17.5561 5.18636 17.2819 5.18636 16.9482ZM6.78092 16.9482V15.9984H6.35264V16.2298C6.2168 16.0588 6.01076 15.9516 5.73056 15.9516C5.17856 15.9516 4.74536 16.3689 4.74536 16.9486C4.74536 17.5283 5.17832 17.9457 5.73056 17.9457C6.01064 17.9457 6.2168 17.8383 6.35264 17.6675V17.898H6.78044V16.9482H6.78092ZM21.2519 16.9482C21.2519 16.6144 21.4787 16.3403 21.8495 16.3403C22.2041 16.3403 22.4428 16.6026 22.4428 16.9482C22.4428 17.2937 22.2041 17.5561 21.8495 17.5561C21.4789 17.5561 21.2519 17.2819 21.2519 16.9482ZM22.847 16.9482V15.2361H22.4183V16.2298C22.2825 16.0588 22.0765 15.9516 21.7963 15.9516C21.2443 15.9516 20.8111 16.3689 20.8111 16.9486C20.8111 17.5283 21.244 17.9457 21.7963 17.9457C22.0765 17.9457 22.2825 17.8383 22.4183 17.6675V17.898H22.847V16.9482ZM12.0964 16.3207C12.3724 16.3207 12.5497 16.4875 12.5949 16.7812H11.573C11.6187 16.5071 11.7914 16.3207 12.0966 16.3207H12.0964ZM12.1051 15.9505C11.5279 15.9505 11.1241 16.3554 11.1241 16.9476C11.1241 17.5513 11.5441 17.9446 12.1338 17.9446C12.4304 17.9446 12.7021 17.8733 12.9411 17.6786L12.7312 17.3726C12.5661 17.4998 12.3559 17.5712 12.1582 17.5712C11.8822 17.5712 11.631 17.448 11.5692 17.1062H13.0316C13.0358 17.0548 13.0401 17.003 13.0401 16.9475C13.0358 16.3555 12.6561 15.9504 12.1048 15.9504L12.1051 15.9505ZM17.2756 16.9475C17.2756 16.6137 17.5024 16.3396 17.8731 16.3396C18.2274 16.3396 18.4664 16.6019 18.4664 16.9475C18.4664 17.293 18.2274 17.5554 17.8731 17.5554C17.5024 17.5554 17.2755 17.2812 17.2755 16.9475H17.2756ZM18.8701 16.9475V15.9984H18.442V16.2298C18.3057 16.0588 18.1001 15.9516 17.8199 15.9516C17.268 15.9516 16.8348 16.3689 16.8348 16.9486C16.8348 17.5283 17.2677 17.9457 17.8199 17.9457C18.1001 17.9457 18.3057 17.8383 18.442 17.6675V17.898H18.8702V16.9482L18.8701 16.9475ZM14.857 16.9475C14.857 17.5234 15.273 17.9445 15.9078 17.9445C16.2044 17.9445 16.402 17.8809 16.6158 17.7181L16.4101 17.3844C16.2493 17.4958 16.0804 17.5554 15.8941 17.5554C15.5522 17.5513 15.3008 17.313 15.3008 16.9475C15.3008 16.5819 15.5522 16.3437 15.8941 16.3396C16.08 16.3396 16.2488 16.3991 16.4101 16.5105L16.6158 16.1768C16.4017 16.014 16.204 15.9504 15.9078 15.9504C15.273 15.9504 14.857 16.3714 14.857 16.9475ZM20.3782 15.9504C20.1311 15.9504 19.9702 16.0618 19.859 16.2286V15.9984H19.4345V17.897H19.8633V16.8327C19.8633 16.5185 20.0033 16.344 20.2833 16.344C20.375 16.3427 20.466 16.3589 20.5511 16.3917L20.6831 16.0026C20.5883 15.9666 20.4647 15.9508 20.378 15.9508L20.3782 15.9504ZM8.89832 16.1494C8.69228 16.0184 8.40836 15.9508 8.09516 15.9508C7.5962 15.9508 7.27496 16.1813 7.27496 16.5585C7.27496 16.8681 7.51412 17.0591 7.95452 17.1187L8.15684 17.1464C8.39168 17.1782 8.50256 17.2378 8.50256 17.3451C8.50256 17.4919 8.34656 17.5756 8.05364 17.5756C7.757 17.5756 7.54292 17.4842 7.39856 17.377L7.19732 17.6989C7.43216 17.8657 7.7288 17.9453 8.05004 17.9453C8.61884 17.9453 8.94848 17.6871 8.94848 17.3256C8.94848 16.9919 8.68904 16.8173 8.2604 16.7577L8.05856 16.7295C7.87316 16.7064 7.7246 16.6704 7.7246 16.5432C7.7246 16.4043 7.86464 16.3208 8.0996 16.3208C8.351 16.3208 8.59436 16.4122 8.71364 16.4836L8.89904 16.1498L8.89832 16.1494ZM14.4244 15.9511C14.1774 15.9511 14.0164 16.0625 13.9057 16.2293V15.9984H13.4812V17.897H13.9095V16.8327C13.9095 16.5185 14.0496 16.344 14.3295 16.344C14.4212 16.3427 14.5122 16.3589 14.5974 16.3917L14.7294 16.0026C14.6346 15.9666 14.511 15.9508 14.4242 15.9508L14.4244 15.9511ZM10.7697 15.9984H10.0694V15.4224H9.63644V15.9984H9.23696V16.3758H9.63644V17.2419C9.63644 17.6824 9.8138 17.9447 10.3204 17.9447C10.5063 17.9447 10.7204 17.8892 10.8562 17.7979L10.7325 17.4444C10.6047 17.5158 10.4647 17.5518 10.3533 17.5518C10.1392 17.5518 10.0694 17.4245 10.0694 17.234V16.3761H10.7697V15.9984ZM4.36664 17.8974V16.7059C4.36664 16.2572 4.07 15.9553 3.5918 15.9512C3.3404 15.9472 3.08108 16.0226 2.89952 16.289C2.76368 16.0785 2.5496 15.9512 2.24864 15.9512C2.03828 15.9512 1.83272 16.0108 1.6718 16.2331V15.9984H1.24316V17.897H1.67516V16.8443C1.67516 16.5147 1.86476 16.3396 2.15756 16.3396C2.44196 16.3396 2.58584 16.5183 2.58584 16.8401V17.8967H3.0188V16.844C3.0188 16.5145 3.21644 16.3393 3.50072 16.3393C3.79316 16.3393 3.93272 16.5181 3.93272 16.8399V17.8965L4.36664 17.8974Z" fill="#081C15"/>
<path d="M23.7716 11.5825V11.3049H23.6966L23.6098 11.4954L23.5235 11.3049H23.4483V11.5825H23.5016V11.3734L23.5827 11.5539H23.6379L23.719 11.3729V11.5825H23.7718H23.7716ZM23.2958 11.5825V11.3525H23.3918V11.3056H23.1465V11.3525H23.2425V11.5825H23.2953H23.2958Z" fill="#F79410"/>
<path d="M15.2472 12.773H8.75684V1.52881H15.2473L15.2472 12.773Z" fill="#FF5F00"/>
<path d="M9.168 7.15034C9.168 4.86945 10.2758 2.83763 12.001 1.52823C10.6951 0.535628 9.08002 -0.00309333 7.41708 -0.000724644C3.32064 -0.000724644 0 3.20087 0 7.15034C0 11.0998 3.32064 14.3014 7.41708 14.3014C9.08007 14.3038 10.6952 13.7651 12.0011 12.7725C10.2761 11.4633 9.168 9.43134 9.168 7.15034Z" fill="#EB001B"/>
<path d="M24.0026 7.15107C24.0026 11.1005 20.682 14.3021 16.5856 14.3021C14.9224 14.3045 13.3071 13.7658 12.001 12.7732C13.7266 11.4638 14.8344 9.43208 14.8344 7.15107C14.8344 4.87007 13.7266 2.83836 12.001 1.52897C13.307 0.53639 14.9223 -0.00231939 16.5854 7.5065e-06C20.6819 7.5065e-06 24.0025 3.2016 24.0025 7.15107" fill="#F79E1B"/>
</g>
<defs>
<clipPath id="clip0_4020_287">
<rect width="24" height="18" fill="white"/>
</clipPath>
</defs>
</svg>
