<svg width="36" height="12" viewBox="0 0 36 12" fill="none" xmlns="http://www.w3.org/2000/svg">
<path fill-rule="evenodd" clip-rule="evenodd" d="M25.8329 2.94666C26.6482 2.94666 27.3091 2.30589 27.3091 1.51574C27.3091 0.725125 26.6482 0.0837402 25.8329 0.0837402C25.0186 0.0837402 24.358 0.725125 24.358 1.51574C24.358 2.30589 25.0186 2.94666 25.8329 2.94666ZM14.5275 3.71943C14.4609 3.88174 13.9815 5.19543 12.822 6.55697V0.735279L9.73269 1.32759V11.8801H12.822V8.6182C13.7168 9.92005 14.1586 11.8801 14.1586 11.8801H17.859C17.493 10.4039 15.8919 7.68205 15.8919 7.68205C17.3288 5.91466 17.96 4.03143 18.0604 3.71943H14.5275ZM22.6492 3.60928C19.8821 3.69543 18.4775 4.89974 18.4775 7.29374V11.8801H21.4963V8.14005C21.4963 6.70651 21.6898 6.09205 23.4433 6.03343V3.65128C23.1482 3.59051 22.6492 3.60928 22.6492 3.60928ZM4.55154 4.88143C4.17314 4.85728 3.29709 4.80236 3.29709 4.03728C3.29709 3.11405 4.55836 3.11405 5.03144 3.11405C5.86324 3.11405 6.94055 3.35251 7.70987 3.57574C7.70987 3.57574 8.13901 3.72251 8.50425 3.87282L8.53818 3.88174V1.35328L8.49156 1.33989C7.58363 1.03174 6.52789 0.735279 4.57057 0.735279C1.19577 0.735279 0 2.64251 0 4.27636C0 5.2182 0.416141 7.43482 4.28115 7.69051C4.60879 7.71005 5.47834 7.75867 5.47834 8.54928C5.47834 9.20205 4.76643 9.58697 3.56907 9.58697C2.2569 9.58697 0.984053 9.26236 0.210925 8.95451V11.5587C1.36832 11.853 2.67304 12.0001 4.20217 12.0001C7.50195 12.0001 8.97986 10.1956 8.97986 8.40713C8.97986 6.37928 7.32608 5.06174 4.55154 4.88143ZM24.3365 11.8801H27.3308V3.72866H24.3365V11.8801ZM32.969 1.25497V11.8801H35.9638V0.735279L32.969 1.25497ZM28.5992 1.25497L31.5912 0.735279V11.8801H28.5992V1.25497Z" fill="url(#paint0_linear_4020_298)"/>
<defs>
<linearGradient id="paint0_linear_4020_298" x1="9.72604" y1="0.0837403" x2="12.2738" y2="14.8086" gradientUnits="userSpaceOnUse">
<stop stop-color="#6B195F"/>
<stop offset="1" stop-color="#4C255B"/>
</linearGradient>
</defs>
</svg>
