<svg width="36" height="8" viewBox="0 0 36 8" fill="none" xmlns="http://www.w3.org/2000/svg">
<path d="M31.7491 3.52336C31.556 3.65794 31.2758 3.72447 30.8924 3.72447H30.726H30.5121L30.8037 2.14964H30.9515H31.0833C31.4016 2.14964 31.6341 2.20087 31.7943 2.30484C31.9195 2.38638 32.0679 2.54778 32.0679 2.85408C32.0679 3.22312 31.8952 3.42166 31.7491 3.52336ZM9.06525 5.49982H6.12246L6.31266 4.47044H8.15848L8.36823 3.31103H6.54015L6.71687 2.29226H9.6545L9.06525 5.49982ZM33.3344 1.40868C32.9017 1.11208 32.247 0.962646 31.3886 0.962646H29.1404L28.3047 5.49997H25.3596L25.5485 4.47059H27.3227L27.5337 3.31436L25.7605 3.31754L25.9504 2.29256H27.7776L28.0207 0.962798H24.309L23.5158 5.26718H22.1548L22.9538 0.962798H21.0134L20.2202 5.26718H18.8931L19.6929 0.962798H17.7545L16.9167 5.50012H13.9507L14.1376 4.47074H15.9199L16.1298 3.32118L14.3502 3.31951L14.5392 2.29256H16.3867L16.6286 0.962798H5.0652L4.40698 4.5585L3.09571 0.962646H1.08318L0 6.83049H1.9219L2.57738 3.13598L3.85001 6.83049H10.7386L11.5759 2.29241H12.6538L11.816 6.83049H29.942L30.467 3.9656L31.3179 6.83049H33.2409L32.3599 4.48969L32.561 4.44619C33.0042 4.35132 33.3511 4.14686 33.5918 3.84057C33.8329 3.53139 33.9553 3.13446 33.9553 2.65766C33.9555 2.10236 33.7527 1.69406 33.3344 1.40868Z" fill="#8DC640"/>
<path d="M34.9194 6.13662L35.1813 6.12299C35.2367 6.12041 35.2805 6.11207 35.3111 6.09889C35.3418 6.086 35.3649 6.0663 35.3798 6.03978C35.3947 6.01341 35.4018 5.98567 35.3998 5.95597C35.3975 5.91202 35.3798 5.87701 35.3469 5.85018C35.3139 5.82366 35.2629 5.81275 35.1946 5.81593L34.9032 5.83078L34.9194 6.13662ZM34.8225 6.65768L34.7754 5.7347L35.1849 5.71408C35.2667 5.70984 35.3293 5.71499 35.3731 5.72954C35.4171 5.74379 35.4524 5.77137 35.4803 5.81214C35.508 5.85276 35.5235 5.89792 35.5254 5.94885C35.5292 6.01432 35.5106 6.07039 35.4706 6.11768C35.4306 6.16451 35.3668 6.19649 35.279 6.21316C35.3119 6.22741 35.3375 6.24105 35.3548 6.25514C35.3922 6.28606 35.428 6.32547 35.4622 6.37305L35.6344 6.61615L35.4823 6.62388L35.3504 6.43807C35.3119 6.38427 35.2804 6.34335 35.2558 6.31516C35.2314 6.28697 35.2094 6.26772 35.1907 6.25681C35.1723 6.2459 35.1526 6.23877 35.134 6.23483C35.1197 6.23271 35.0971 6.23241 35.0656 6.23408L34.9247 6.2412L34.945 6.65146L34.8225 6.65768Z" fill="#8DC640"/>
<path d="M34.423 6.21078C34.4136 6.01981 34.4784 5.83673 34.6065 5.69518C34.7346 5.55332 34.9107 5.46951 35.1019 5.45981C35.4957 5.43935 35.8326 5.74352 35.8529 6.13773C35.8535 6.14985 35.8543 6.16273 35.8543 6.1744C35.8543 6.55269 35.5563 6.8696 35.1745 6.8896C34.7802 6.90961 34.4436 6.60513 34.423 6.21078ZM35.0937 5.31265C34.8641 5.32492 34.652 5.42525 34.4978 5.59636C34.3435 5.76732 34.2647 5.98859 34.2766 6.21881C34.3014 6.69349 34.7074 7.0598 35.1824 7.03601C35.6568 7.01145 36.0239 6.60513 35.9993 6.13045V6.13C35.9754 5.65517 35.5693 5.28855 35.0937 5.31265Z" fill="#8DC640"/>
</svg>
