<svg width="110" height="90" viewBox="0 0 110 90" fill="none" xmlns="http://www.w3.org/2000/svg">
<path fill-rule="evenodd" clip-rule="evenodd" d="M31.7691 14.0592C31.7691 14.534 31.7691 15.0088 31.7691 15.4836C31.7691 15.675 31.7308 15.8665 31.6466 16.0426C31.4858 16.4178 31.1948 16.6169 30.7812 16.6399C30.7506 16.6399 30.72 16.6399 30.697 16.6399C30.0231 16.6399 29.3568 16.6399 28.6829 16.6399C28.5528 16.6399 28.4226 16.6246 28.3 16.6016C27.8788 16.5097 27.6185 16.234 27.5189 15.8128C27.4883 15.675 27.4653 15.5295 27.4653 15.384C27.4577 14.4804 27.4653 13.5844 27.4653 12.6807C27.4653 12.6042 27.4806 12.5276 27.4959 12.4587C27.5419 12.3055 27.6415 12.2366 27.7946 12.2366C27.9784 12.2366 28.1622 12.2366 28.346 12.2366C28.5298 12.2366 28.7059 12.2366 28.8897 12.2366C28.9586 12.2366 29.0275 12.2519 29.0888 12.2749C29.2343 12.3285 29.3109 12.451 29.3109 12.6118C29.3109 13.2934 29.3109 13.9673 29.3109 14.6488C29.3109 14.7254 29.3185 14.802 29.3339 14.8709C29.3645 15.0164 29.4641 15.1007 29.6019 15.1083C29.7627 15.116 29.8852 15.0471 29.9312 14.9015C29.9542 14.8326 29.9618 14.7637 29.9618 14.6871C29.9618 14.0132 29.9618 13.3317 29.9618 12.6578C29.9618 12.5812 29.9695 12.5046 29.9771 12.4357C29.9925 12.3208 30.069 12.2595 30.1762 12.2442C30.2145 12.2366 30.2528 12.2366 30.2911 12.2366C30.6357 12.2366 30.9727 12.2366 31.3173 12.2366C31.3709 12.2366 31.4245 12.2442 31.4704 12.2519C31.6236 12.2749 31.7232 12.3821 31.7385 12.5352C31.7461 12.5735 31.7461 12.6118 31.7461 12.6578C31.7768 13.1326 31.7768 13.592 31.7691 14.0592C31.7691 14.0592 31.7768 14.0592 31.7691 14.0592Z" fill="#081C15"/>
<path fill-rule="evenodd" clip-rule="evenodd" d="M20.8799 10.6746C21.615 10.6746 22.3502 10.6746 23.0777 10.6746C23.1466 10.6746 23.2156 10.6822 23.2845 10.6899C23.3917 10.7129 23.4376 10.7665 23.4376 10.8737C23.4376 10.9732 23.4376 11.0728 23.4376 11.1647C23.4376 11.4097 23.4376 11.6548 23.4376 11.8998C23.4376 12.0607 23.3994 12.0989 23.2385 12.1066C23.0241 12.1143 22.8097 12.1066 22.6029 12.1066C22.4191 12.1066 22.243 12.1066 22.0592 12.1066C22.0439 12.1066 22.0286 12.1066 22.0133 12.1066C21.8678 12.1143 21.8371 12.1449 21.8371 12.2904C21.8371 13.6229 21.8371 14.9477 21.8371 16.2802C21.8371 16.3262 21.8371 16.3798 21.8295 16.4257C21.8218 16.5099 21.7759 16.5712 21.6916 16.5942C21.6304 16.6095 21.5768 16.6248 21.5155 16.6248C21.2934 16.6325 21.0713 16.6248 20.8492 16.6248C20.6042 16.6248 20.3668 16.6248 20.1217 16.6248C20.0681 16.6248 20.0145 16.6172 19.9609 16.6018C19.892 16.5865 19.8537 16.5406 19.8384 16.4717C19.8307 16.4257 19.8307 16.3721 19.8307 16.3262C19.8307 15.0013 19.8307 13.6765 19.8307 12.3517C19.8307 12.3134 19.8307 12.2674 19.8307 12.2291C19.8231 12.1602 19.8001 12.1296 19.7312 12.1219C19.6929 12.1143 19.6546 12.1143 19.6163 12.1143C19.2717 12.1143 18.9348 12.1143 18.5901 12.1143C18.5442 12.1143 18.4906 12.1143 18.4446 12.1066C18.3681 12.0913 18.3298 12.053 18.3221 11.9764C18.3221 11.9458 18.3145 11.9075 18.3145 11.8769C18.3145 11.5705 18.3145 11.2642 18.3145 10.9502C18.3145 10.7511 18.3757 10.6899 18.5748 10.6822C18.6131 10.6822 18.6591 10.6822 18.6974 10.6822C19.4249 10.6746 20.1524 10.6746 20.8799 10.6746Z" fill="#081C15"/>
<path fill-rule="evenodd" clip-rule="evenodd" d="M45.095 14.2048C45.1869 13.9751 45.2788 13.7377 45.3783 13.508C45.5008 13.2016 45.6234 12.903 45.7459 12.5967C45.7918 12.4894 45.8531 12.3899 45.945 12.321C46.0063 12.275 46.0828 12.2444 46.1594 12.2444C46.4887 12.2444 46.818 12.2444 47.155 12.2444C47.2162 12.2444 47.2775 12.252 47.3311 12.2674C47.4153 12.2903 47.446 12.3516 47.423 12.4358C47.4153 12.4741 47.4 12.5124 47.3847 12.5507C46.6266 14.335 45.8684 16.1193 45.1103 17.896C45.072 17.9879 45.0184 18.0721 44.9495 18.1487C44.8729 18.2253 44.781 18.2636 44.6738 18.2636C44.3828 18.2636 44.0994 18.2636 43.8084 18.2636C43.7548 18.2636 43.7012 18.2559 43.6553 18.2482C43.5251 18.2253 43.4791 18.1563 43.5174 18.0338C43.5251 17.9955 43.5404 17.9649 43.5557 17.9266C43.7395 17.4824 43.931 17.0383 44.1224 16.5941C44.1454 16.5405 44.1454 16.5022 44.1224 16.4486C43.6017 15.1621 43.0809 13.8755 42.5602 12.589C42.5449 12.5507 42.5295 12.5124 42.5219 12.4741C42.4913 12.3593 42.5372 12.2827 42.6597 12.2597C42.7133 12.252 42.7593 12.2444 42.8129 12.2444C43.2341 12.2444 43.6553 12.2444 44.0841 12.2444C44.199 12.2444 44.2985 12.2827 44.3751 12.3669C44.444 12.4358 44.49 12.5201 44.5206 12.6043C44.6968 13.1097 44.8729 13.6152 45.0567 14.1129C45.0643 14.1436 45.0797 14.1665 45.0873 14.1972C45.0797 14.2048 45.0873 14.2048 45.095 14.2048Z" fill="#081C15"/>
<path fill-rule="evenodd" clip-rule="evenodd" d="M34.3584 16.7547C33.7381 16.7393 33.2326 16.6934 32.7272 16.5632C32.6736 16.5479 32.62 16.5249 32.5587 16.5173C32.5051 16.5019 32.4822 16.4713 32.4668 16.4177C32.4286 16.2339 32.4209 16.0501 32.4209 15.8663C32.4209 15.7591 32.4362 15.6519 32.4515 15.5524C32.4515 15.5294 32.4592 15.5064 32.4668 15.4834C32.5051 15.3532 32.5358 15.3379 32.666 15.3686C33.0718 15.4758 33.493 15.5064 33.9142 15.4911C33.9908 15.4911 34.0597 15.4758 34.1363 15.4605C34.1746 15.4528 34.2205 15.4298 34.2512 15.4068C34.3277 15.3456 34.3277 15.2537 34.2588 15.1924C34.2129 15.1541 34.1593 15.1158 34.098 15.0929C33.9984 15.0393 33.8912 15.001 33.784 14.955C33.6079 14.8708 33.4318 14.7942 33.2556 14.6947C33.0718 14.5951 32.911 14.4726 32.7885 14.3041C32.4975 13.9135 32.4286 13.4924 32.6047 13.0329C32.6813 12.8185 32.8421 12.6576 33.0259 12.5351C33.2709 12.359 33.5543 12.2594 33.8453 12.1905C34.1976 12.1139 34.5498 12.0986 34.9097 12.1063C35.1778 12.1139 35.4458 12.1216 35.7062 12.1752C35.7674 12.1905 35.8287 12.2135 35.89 12.2211C35.9512 12.2364 35.9819 12.2747 35.9895 12.336C35.9895 12.4432 35.9972 12.5504 35.9895 12.6576C35.9742 12.8108 35.9436 12.9563 35.89 13.1018C35.8823 13.1248 35.8746 13.1477 35.867 13.1631C35.7981 13.3086 35.7598 13.3239 35.6066 13.3086C35.3692 13.2779 35.1242 13.2473 34.8868 13.2243C34.8102 13.2167 34.7336 13.2243 34.6647 13.2243C34.6187 13.2243 34.5728 13.2396 34.5268 13.2473C34.4656 13.2626 34.4196 13.3009 34.412 13.3698C34.4043 13.4387 34.4426 13.4694 34.4886 13.5C34.5651 13.546 34.6417 13.5919 34.7183 13.6302C34.8944 13.7221 35.0782 13.7987 35.2543 13.8906C35.4688 14.0054 35.6602 14.1356 35.8287 14.3118C36.135 14.6181 36.2729 14.9933 36.2422 15.4222C36.2346 15.5447 36.2116 15.6749 36.181 15.7974C36.0891 16.1114 35.89 16.3411 35.6066 16.5019C35.3845 16.6245 35.1395 16.6934 34.8868 16.724C34.68 16.7393 34.4732 16.747 34.3584 16.7547Z" fill="#081C15"/>
<path fill-rule="evenodd" clip-rule="evenodd" d="M37.107 13.439C37.0381 13.439 36.9768 13.439 36.9079 13.439C36.8619 13.439 36.8236 13.439 36.7777 13.4313C36.7011 13.4236 36.6475 13.3777 36.6245 13.3088C36.6092 13.2628 36.6016 13.2169 36.6016 13.1709C36.6016 12.9488 36.6016 12.7344 36.6016 12.5123C36.6016 12.5047 36.6016 12.4894 36.6016 12.474C36.6169 12.3285 36.6935 12.252 36.8313 12.2443C36.9155 12.2367 37.0074 12.2443 37.0917 12.2443C37.1223 12.2443 37.1529 12.2443 37.1912 12.2443C37.1912 12.2137 37.1989 12.183 37.1989 12.1524C37.1989 11.9993 37.1989 11.8461 37.1989 11.6929C37.1989 11.5628 37.2525 11.4632 37.3674 11.4096C37.4286 11.379 37.4975 11.3483 37.5665 11.333C37.9034 11.2717 38.248 11.2181 38.585 11.1645C38.6309 11.1569 38.6769 11.1645 38.7228 11.1645C38.7917 11.1722 38.83 11.2181 38.8377 11.2871C38.8454 11.3483 38.853 11.4096 38.853 11.4709C38.853 11.7006 38.853 11.938 38.853 12.1677C38.853 12.1907 38.853 12.206 38.8607 12.2367C38.8836 12.2367 38.9143 12.2443 38.9372 12.2443C39.0751 12.2443 39.2206 12.2443 39.3584 12.2443C39.481 12.2443 39.5575 12.2903 39.5882 12.4128C39.6112 12.4741 39.6188 12.5506 39.6188 12.6119C39.6265 12.811 39.6188 13.0025 39.6188 13.2016C39.6188 13.2169 39.6188 13.2398 39.6188 13.2552C39.6111 13.4007 39.5575 13.4543 39.412 13.4543C39.2665 13.4543 39.121 13.4543 38.9832 13.4543C38.9602 13.4543 38.9372 13.4543 38.9143 13.4619C38.9143 13.4926 38.9066 13.5232 38.9066 13.5538C38.9066 14.0975 38.9066 14.6413 38.9066 15.185C38.9066 15.3458 38.9602 15.4147 39.121 15.4377C39.1746 15.4453 39.2283 15.4453 39.2819 15.4453C39.3431 15.4453 39.3584 15.4453 39.3814 15.5066C39.4044 15.5908 39.4274 15.6751 39.4503 15.7593C39.4963 15.9814 39.5193 16.2035 39.5193 16.4256C39.5193 16.4562 39.5193 16.4868 39.5193 16.5098C39.5193 16.5711 39.4963 16.6017 39.4427 16.617C39.2972 16.6477 39.144 16.6859 38.9985 16.7089C38.7458 16.7472 38.4854 16.7625 38.2251 16.7319C37.9341 16.6936 37.666 16.6017 37.4516 16.3873C37.2601 16.1958 37.1529 15.9584 37.1223 15.6904C37.107 15.5449 37.107 15.3917 37.107 15.2462C37.107 14.6642 37.107 14.0822 37.107 13.5002C37.107 13.4849 37.107 13.4696 37.107 13.439Z" fill="#081C15"/>
<path fill-rule="evenodd" clip-rule="evenodd" d="M40.2773 13.6226C40.2773 12.7113 40.2773 11.8076 40.2773 10.8963C40.2773 10.8581 40.2773 10.8274 40.2773 10.7891C40.285 10.6743 40.3616 10.5977 40.4764 10.5824C40.5071 10.5824 40.5377 10.5747 40.5683 10.5747C40.9359 10.5747 41.2959 10.5747 41.6634 10.5747C41.74 10.5747 41.8166 10.5824 41.8855 10.5977C42.008 10.6207 42.0463 10.6743 42.054 10.7891C42.054 10.8198 42.054 10.8504 42.054 10.881C42.054 12.6807 42.054 14.4803 42.054 16.2876C42.054 16.3335 42.054 16.3795 42.0463 16.4254C42.031 16.5479 41.9698 16.6092 41.8549 16.6245C41.8166 16.6322 41.7783 16.6322 41.74 16.6322C41.3495 16.6322 40.9589 16.6322 40.5683 16.6322C40.5147 16.6322 40.4535 16.6322 40.3999 16.6169C40.3309 16.6092 40.2927 16.5632 40.285 16.4943C40.2773 16.456 40.2773 16.4177 40.2773 16.3795C40.2773 15.8357 40.2773 15.292 40.2773 14.7483C40.2773 14.3807 40.2773 13.9978 40.2773 13.6226Z" fill="#081C15"/>
<path fill-rule="evenodd" clip-rule="evenodd" d="M23.7285 14.664C23.7285 14.1968 23.7285 13.7297 23.7285 13.2549C23.7285 13.1477 23.7362 13.0405 23.7591 12.9409C23.8051 12.6806 23.9583 12.4968 24.2033 12.3819C24.3641 12.313 24.5326 12.2747 24.7011 12.267C24.9002 12.2594 25.107 12.2517 25.3061 12.2517C25.7809 12.2517 26.2556 12.2517 26.7304 12.2517C26.7381 12.2517 26.7534 12.2517 26.7687 12.2517C26.9066 12.2517 26.9449 12.29 26.9449 12.4278C26.9449 12.7188 26.9449 13.0175 26.9449 13.3085C26.9449 13.3315 26.9449 13.3468 26.9449 13.3698C26.9372 13.454 26.8836 13.5076 26.7994 13.5153C26.7304 13.5229 26.6692 13.5229 26.6003 13.5229C26.4548 13.5306 26.3093 13.5459 26.1638 13.5612C26.0412 13.5765 25.934 13.6225 25.8268 13.6838C25.643 13.791 25.5435 13.9518 25.5281 14.1585C25.5281 14.2045 25.5281 14.2581 25.5281 14.304C25.5281 14.955 25.5281 15.6059 25.5281 16.2568C25.5281 16.3181 25.5205 16.3794 25.5128 16.4406C25.4899 16.5632 25.4133 16.6321 25.2907 16.6397C25.2678 16.6397 25.2525 16.6397 25.2295 16.6397C24.8619 16.6397 24.502 16.6397 24.1344 16.6397C24.0808 16.6397 24.0272 16.6321 23.9812 16.6168C23.851 16.5861 23.7745 16.4942 23.7515 16.364C23.7438 16.3104 23.7362 16.2492 23.7362 16.1956C23.7285 15.6825 23.7285 15.1694 23.7285 14.664Z" fill="#081C15"/>
<path fill-rule="evenodd" clip-rule="evenodd" d="M14.9443 10.674C14.9979 10.674 15.0362 10.6817 15.0668 10.6817C15.5034 10.6817 15.9322 10.6817 16.3687 10.6817C16.5219 10.6817 16.675 10.7123 16.8205 10.7813C17.0886 10.9191 17.1804 11.1335 17.1268 11.4169C17.0349 11.8763 16.9277 12.3282 16.8205 12.7876C16.6367 13.6147 16.4529 14.4341 16.2692 15.2612C16.2155 15.4909 16.1696 15.7283 16.116 15.9581C16.0624 16.1954 15.9475 16.3869 15.7254 16.5094C15.5952 16.586 15.4497 16.609 15.3042 16.6166C15.22 16.6243 15.1281 16.6166 15.0439 16.6166C12.8384 16.6166 10.6329 16.6166 8.43503 16.6166C8.25124 16.6166 8.07511 16.5783 7.92195 16.4711C7.75347 16.3563 7.65392 16.1954 7.60797 16.004C7.53905 15.7053 7.47013 15.4067 7.4012 15.108C7.15615 14.0053 6.90343 12.9025 6.65838 11.7921C6.62775 11.6696 6.59712 11.5471 6.5818 11.4245C6.56648 11.3326 6.56648 11.2407 6.5818 11.1488C6.60477 10.9957 6.70433 10.8885 6.83451 10.8042C6.98767 10.7123 7.16381 10.674 7.33994 10.674C7.76879 10.674 8.20529 10.674 8.63414 10.674C8.76433 10.674 8.76432 10.674 8.76432 10.5439C8.76432 10.2835 8.76432 10.0231 8.76432 9.7704C8.75667 8.33836 9.75221 7.09777 11.146 6.76081C11.4906 6.67658 11.8352 6.66126 12.1874 6.69955C12.7848 6.76081 13.3132 6.9829 13.7803 7.35814C14.347 7.81762 14.7146 8.40728 14.8754 9.11947C14.9213 9.32624 14.9443 9.54066 14.9443 9.75509C14.9443 10.0231 14.9443 10.2911 14.9443 10.5592C14.9443 10.5975 14.9443 10.6281 14.9443 10.674ZM11.8505 10.6817C12.4708 10.6817 13.0987 10.6817 13.719 10.6817C13.742 10.6817 13.7726 10.6817 13.7956 10.6817C13.8492 10.6817 13.8569 10.674 13.8645 10.6128C13.8645 10.5898 13.8645 10.5668 13.8645 10.5439C13.8645 10.2758 13.8645 10.0078 13.8645 9.73977C13.8645 9.60193 13.8569 9.47174 13.8339 9.3339C13.7497 8.85144 13.5199 8.44557 13.137 8.13925C12.6929 7.77167 12.1798 7.62617 11.6054 7.68743C11.3068 7.71806 11.0311 7.81762 10.786 7.97843C10.1734 8.37665 9.85942 8.951 9.83644 9.67851C9.82878 9.96951 9.83644 10.2605 9.83644 10.5515C9.83644 10.674 9.83644 10.674 9.95897 10.674C10.5946 10.6817 11.2225 10.6817 11.8505 10.6817ZM11.8505 11.9223C11.8505 11.9223 11.8505 11.93 11.8505 11.9223C11.4523 11.9223 11.0541 11.9223 10.6558 11.9223C10.5257 11.9223 10.4797 11.9682 10.4797 12.0984C10.4797 12.2363 10.4797 12.3741 10.4797 12.512C10.4797 12.6804 10.5027 12.7034 10.6712 12.7111C10.8243 12.7111 10.9775 12.7111 11.1306 12.7111C11.2761 12.7111 11.2761 12.7111 11.2761 12.8566C11.2761 13.5152 11.2761 14.1737 11.2761 14.8323C11.2761 14.8706 11.2761 14.9166 11.2838 14.9549C11.2991 15.0468 11.3297 15.085 11.4216 15.085C11.6667 15.0927 11.9041 15.0927 12.1492 15.0927C12.1798 15.0927 12.2104 15.0927 12.2411 15.085C12.31 15.0774 12.3483 15.0391 12.3636 14.9702C12.3712 14.9319 12.3712 14.8936 12.3712 14.8476C12.3712 14.1737 12.3712 13.5075 12.3712 12.8336C12.3712 12.7187 12.3712 12.7111 12.4938 12.7111C12.6699 12.7111 12.846 12.7111 13.0222 12.7111C13.0605 12.7111 13.0987 12.7034 13.1447 12.6958C13.183 12.6881 13.206 12.6651 13.2136 12.6268C13.2213 12.6039 13.2213 12.5732 13.2213 12.5502C13.2213 12.3971 13.2213 12.2516 13.2213 12.0984C13.2213 11.9606 13.1753 11.9223 13.0451 11.9223C13.0222 11.9223 12.9992 11.9223 12.9762 11.9223C12.5933 11.9223 12.2257 11.9223 11.8505 11.9223Z" fill="#87BD5C"/>
<path fill-rule="evenodd" clip-rule="evenodd" d="M12.7308 18.0869C12.7155 17.4513 13.2668 16.8769 13.9561 16.8846C14.607 16.8923 15.1584 17.436 15.1584 18.1099C15.1507 18.7838 14.5917 19.3352 13.9101 19.3198C13.2898 19.3045 12.7155 18.7761 12.7308 18.0869Z" fill="#87BD5C"/>
<path fill-rule="evenodd" clip-rule="evenodd" d="M10.985 18.1024C11.0004 18.761 10.4413 19.32 9.76742 19.32C9.09352 19.32 8.5498 18.761 8.5498 18.1024C8.5498 17.4285 9.1165 16.8848 9.76742 16.8924C10.426 16.8848 10.9927 17.4285 10.985 18.1024Z" fill="#87BD5C"/>
<rect x="1" y="1" width="52" height="24" rx="4" stroke="#E2E2E2"/>
<path d="M69.6862 8.4764C69.1929 7.91417 68.3012 7.67312 67.1605 7.67312H63.8499C63.737 7.67306 63.6277 7.71331 63.5418 7.78661C63.4559 7.85992 63.399 7.96147 63.3814 8.07299L62.0035 16.8163C61.9971 16.8568 61.9996 16.8983 62.0107 16.9378C62.0219 16.9773 62.0415 17.0139 62.0682 17.0451C62.0949 17.0763 62.128 17.1014 62.1653 17.1185C62.2026 17.1357 62.2432 17.1446 62.2843 17.1445H64.3281L64.8415 13.8887L64.8256 13.9906C64.8429 13.8793 64.8994 13.7779 64.985 13.7046C65.0705 13.6313 65.1794 13.5909 65.292 13.5908H66.2633C68.1713 13.5908 69.6653 12.8158 70.1017 10.5739C70.1147 10.5076 70.1259 10.4431 70.1356 10.38C70.2652 9.55137 70.1347 8.98737 69.6865 8.4767" fill="#003087"/>
<path d="M94.7081 12.6373C94.5831 13.4576 93.9567 13.4576 93.3508 13.4576H93.0061L93.248 11.9259C93.2627 11.8334 93.3423 11.7653 93.436 11.7653H93.5942C94.0068 11.7653 94.3963 11.7653 94.5973 12.0002C94.7172 12.1407 94.7535 12.3494 94.7081 12.6373ZM94.4444 10.4968H92.1589C92.0832 10.4968 92.01 10.5238 91.9524 10.573C91.8948 10.6221 91.8567 10.6902 91.8447 10.7649L90.9212 16.6251C90.917 16.6523 90.9187 16.68 90.9262 16.7065C90.9336 16.7329 90.9468 16.7575 90.9646 16.7784C90.9825 16.7993 91.0047 16.8161 91.0296 16.8276C91.0546 16.8392 91.0817 16.8452 91.1092 16.8452H92.282C92.3914 16.8452 92.4845 16.7657 92.5016 16.6578L92.7638 14.9958C92.788 14.8417 92.9212 14.7277 93.0774 14.7277H93.8005C95.3063 14.7277 96.175 13.9995 96.4019 12.5554C96.5041 11.9242 96.406 11.4279 96.1104 11.0805C95.7854 10.6986 95.2093 10.4965 94.4447 10.4965" fill="#009CDE"/>
<path d="M78.4064 12.6369C78.2814 13.4572 77.655 13.4572 77.0488 13.4572H76.7041L76.946 11.9255C76.9607 11.833 77.0403 11.7649 77.134 11.7649H77.2922C77.7048 11.7649 78.0943 11.7649 78.2953 11.9998C78.4155 12.1404 78.4518 12.349 78.4064 12.6369ZM78.1426 10.4964H75.8572C75.701 10.4964 75.5678 10.6101 75.5433 10.7645L74.6195 16.6247C74.6152 16.6519 74.6169 16.6797 74.6243 16.7061C74.6318 16.7326 74.6449 16.7572 74.6628 16.7781C74.6807 16.799 74.7029 16.8158 74.7278 16.8273C74.7528 16.8389 74.78 16.8448 74.8075 16.8448H75.899C76.0552 16.8448 76.1881 16.7311 76.2125 16.5767L76.4621 14.9957C76.4863 14.8413 76.6195 14.7276 76.7757 14.7276H77.4988C79.0046 14.7276 79.8733 13.9992 80.1002 12.555C80.2024 11.9238 80.1043 11.4275 79.8087 11.0801C79.4837 10.6982 78.9076 10.4961 78.1429 10.4961L78.1426 10.4964ZM83.4488 14.7408C83.3428 15.3661 82.8468 15.7861 82.2136 15.7861C81.8962 15.7861 81.6419 15.6838 81.4787 15.4905C81.3166 15.299 81.2559 15.0258 81.3072 14.722C81.4056 14.102 81.9101 13.6688 82.5336 13.6688C82.8445 13.6688 83.0964 13.772 83.2632 13.967C83.4309 14.1636 83.4969 14.4382 83.4488 14.7408ZM84.9741 12.6104H83.8797C83.8342 12.6103 83.7901 12.6265 83.7556 12.6561C83.721 12.6856 83.6981 12.7266 83.6911 12.7715L83.6433 13.0774L83.5667 12.9666C83.3298 12.6227 82.8014 12.5075 82.274 12.5075C81.0649 12.5075 80.0321 13.424 79.8311 14.7087C79.7265 15.3502 79.875 15.9629 80.2387 16.3904C80.5725 16.7832 81.049 16.9468 81.6169 16.9468C82.5916 16.9468 83.1321 16.3209 83.1321 16.3209L83.0832 16.625C83.0788 16.6522 83.0805 16.68 83.088 16.7065C83.0955 16.733 83.1086 16.7576 83.1265 16.7785C83.1444 16.7994 83.1666 16.8162 83.1917 16.8277C83.2167 16.8392 83.2439 16.8452 83.2714 16.8451H84.2568C84.413 16.8451 84.5462 16.7317 84.5707 16.577L85.1624 12.8308C85.1666 12.8036 85.1649 12.7757 85.1574 12.7492C85.1499 12.7227 85.1367 12.6982 85.1188 12.6773C85.1009 12.6563 85.0786 12.6396 85.0536 12.6281C85.0286 12.6166 85.0013 12.6106 84.9738 12.6107" fill="#003087"/>
<path d="M99.7501 14.7408C99.644 15.3661 99.148 15.7861 98.5148 15.7861C98.1974 15.7861 97.9431 15.6838 97.7799 15.4905C97.6178 15.299 97.5571 15.0258 97.6084 14.722C97.7068 14.102 98.211 13.6688 98.8348 13.6688C99.1457 13.6688 99.3976 13.772 99.5644 13.967C99.7321 14.1636 99.7981 14.4382 99.7501 14.7408ZM101.275 12.6104H100.181C100.135 12.6103 100.091 12.6265 100.057 12.6561C100.022 12.6856 99.9993 12.7266 99.9923 12.7715L99.9445 13.0774L99.8679 12.9666C99.631 12.6227 99.1027 12.5075 98.5752 12.5075C97.3664 12.5075 96.3336 13.424 96.1323 14.7087C96.0277 15.3502 96.1765 15.9629 96.5402 16.3904C96.874 16.7832 97.3505 16.9468 97.9184 16.9468C98.8934 16.9468 99.4339 16.3209 99.4339 16.3209L99.385 16.625C99.3806 16.6522 99.3821 16.68 99.3895 16.7065C99.3969 16.733 99.41 16.7575 99.4279 16.7785C99.4457 16.7994 99.4679 16.8162 99.4929 16.8277C99.5179 16.8392 99.5451 16.8452 99.5727 16.8451H100.558C100.714 16.8451 100.847 16.7317 100.872 16.577L101.464 12.8308C101.468 12.8036 101.466 12.7757 101.459 12.7492C101.451 12.7227 101.438 12.6982 101.42 12.6773C101.402 12.6563 101.38 12.6396 101.355 12.6281C101.33 12.6166 101.303 12.6106 101.275 12.6107" fill="#009CDE"/>
<path d="M90.8036 12.6109H89.7033C89.5981 12.6109 89.5 12.6631 89.4411 12.7503L87.9235 14.9851L87.2802 12.8375C87.2606 12.772 87.2204 12.7146 87.1656 12.6737C87.1107 12.6328 87.0442 12.6107 86.9758 12.6106H85.8947C85.8643 12.6106 85.8345 12.6179 85.8075 12.6318C85.7806 12.6456 85.7573 12.6657 85.7397 12.6904C85.722 12.7151 85.7105 12.7436 85.7061 12.7736C85.7017 12.8036 85.7045 12.8342 85.7143 12.8629L86.9254 16.4184L85.7862 18.0258C85.7661 18.0544 85.7542 18.0879 85.7518 18.1227C85.7494 18.1576 85.7566 18.1924 85.7727 18.2234C85.7887 18.2544 85.813 18.2804 85.8428 18.2986C85.8727 18.3168 85.9069 18.3264 85.9418 18.3264H87.0409C87.1447 18.3264 87.2422 18.2754 87.3017 18.19L90.9598 12.91C90.9797 12.8815 90.9913 12.848 90.9935 12.8133C90.9957 12.7786 90.9884 12.744 90.9723 12.7132C90.9562 12.6823 90.932 12.6565 90.9022 12.6385C90.8725 12.6205 90.8384 12.6109 90.8036 12.6109Z" fill="#003087"/>
<path d="M102.566 10.6579L101.627 16.6253C101.623 16.6525 101.625 16.6803 101.632 16.7068C101.64 16.7333 101.653 16.7578 101.671 16.7787C101.689 16.7997 101.711 16.8164 101.736 16.828C101.761 16.8395 101.788 16.8454 101.816 16.8455H102.759C102.915 16.8455 103.048 16.7317 103.073 16.5773L103.998 10.7168C104.002 10.6896 104 10.6618 103.993 10.6353C103.985 10.6088 103.972 10.5843 103.954 10.5633C103.936 10.5424 103.914 10.5256 103.889 10.5141C103.864 10.5026 103.837 10.4967 103.809 10.4967H102.754C102.708 10.4966 102.664 10.5128 102.63 10.5423C102.595 10.5718 102.573 10.6127 102.566 10.6576" fill="#009CDE"/>
<path d="M69.6862 8.4764C69.1929 7.91417 68.3012 7.67312 67.1605 7.67312H63.8499C63.737 7.67306 63.6277 7.71331 63.5418 7.78661C63.4559 7.85992 63.399 7.96147 63.3814 8.07299L62.0035 16.8163C61.9971 16.8568 61.9996 16.8983 62.0107 16.9378C62.0219 16.9773 62.0415 17.0139 62.0682 17.0451C62.0949 17.0763 62.128 17.1014 62.1653 17.1185C62.2026 17.1357 62.2432 17.1446 62.2843 17.1445H64.3281L64.8415 13.8887L64.8256 13.9906C64.8429 13.8793 64.8994 13.7779 64.985 13.7046C65.0705 13.6313 65.1794 13.5909 65.292 13.5908H66.2633C68.1713 13.5908 69.6653 12.8158 70.1017 10.5739C70.1147 10.5076 70.1259 10.4431 70.1356 10.38C70.2652 9.55137 70.1347 8.98737 69.6865 8.4767" fill="#003087"/>
<path d="M65.3931 10.3912C65.4086 10.2937 65.4583 10.205 65.5334 10.1409C65.6084 10.0768 65.7038 10.0415 65.8024 10.0414H68.3979C68.7053 10.0414 68.992 10.0615 69.254 10.1033C69.3972 10.1263 69.5389 10.158 69.6783 10.1982C69.8366 10.2427 69.9898 10.3037 70.1353 10.3803C70.2656 9.55138 70.1347 8.98766 69.6865 8.4767C69.193 7.91476 68.3016 7.67371 67.1609 7.67371H63.8499C63.7371 7.67379 63.628 7.7141 63.5423 7.78739C63.4565 7.86068 63.3997 7.96216 63.382 8.07359L62.0035 16.816C61.9971 16.8565 61.9995 16.898 62.0107 16.9375C62.0218 16.977 62.0414 17.0137 62.068 17.0449C62.0947 17.0761 62.1278 17.1012 62.1651 17.1184C62.2024 17.1356 62.243 17.1445 62.284 17.1445H64.3282L64.8415 13.8884L65.3931 10.3912Z" fill="#003087"/>
<path d="M70.1355 10.3799C70.1254 10.4448 70.1141 10.5094 70.1016 10.5738C69.6652 12.8154 68.1712 13.5907 66.2632 13.5907H65.2917C65.1791 13.5908 65.0702 13.6311 64.9847 13.7045C64.8992 13.7778 64.8427 13.8793 64.8255 13.9906L64.3281 17.1442L64.1867 18.0388C64.181 18.0743 64.1832 18.1106 64.1929 18.1453C64.2027 18.1799 64.2199 18.2119 64.2432 18.2393C64.2666 18.2666 64.2956 18.2886 64.3283 18.3036C64.3609 18.3187 64.3965 18.3264 64.4324 18.3264H66.1554C66.3593 18.3264 66.5326 18.1779 66.5647 17.9766L66.5815 17.8888L66.9062 15.8308L66.9268 15.7171C66.9423 15.6196 66.992 15.5307 67.0671 15.4666C67.1422 15.4025 67.2377 15.3673 67.3364 15.3673H67.5943C69.2633 15.3673 70.5702 14.6896 70.9521 12.7282C71.1112 11.909 71.0287 11.2245 70.6073 10.7439C70.4735 10.5949 70.3136 10.4715 70.1355 10.3799Z" fill="#009CDE"/>
<path d="M69.6782 10.1983C69.6116 10.1785 69.5429 10.1608 69.4722 10.1452C69.4015 10.1296 69.3284 10.1158 69.2536 10.104C68.9913 10.0612 68.7049 10.0412 68.3972 10.0412H65.802C65.7033 10.0411 65.6077 10.0763 65.5326 10.1405C65.4576 10.2047 65.4079 10.2937 65.3927 10.3913L64.8411 13.8891L64.8252 13.9907C64.8424 13.8794 64.8989 13.7779 64.9844 13.7046C65.0698 13.6313 65.1787 13.5909 65.2914 13.5909H66.2629C68.1709 13.5909 69.6649 12.8159 70.1013 10.574C70.1143 10.5077 70.1252 10.4434 70.1352 10.3801C70.02 10.3198 69.8999 10.2691 69.7763 10.2286C69.7442 10.218 69.7115 10.208 69.6782 10.198" fill="#012169"/>
<rect x="57" y="1" width="52" height="24" rx="4" stroke="#E2E2E2"/>
<path d="M25.0458 49.85H22.7822L24.1969 41.1554H26.4608L25.0458 49.85ZM20.8778 41.1554L18.7197 47.1356L18.4644 45.8478L18.4646 45.8483L17.7029 41.9382C17.7029 41.9382 17.6108 41.1554 16.6291 41.1554H13.0614L13.0195 41.3026C13.0195 41.3026 14.1105 41.5296 15.3874 42.2964L17.3541 49.8502H19.7126L23.3141 41.1554H20.8778ZM38.6827 49.85H40.7612L38.949 41.1551H37.1293C36.289 41.1551 36.0844 41.8031 36.0844 41.8031L32.7083 49.85H35.068L35.5399 48.5585H38.4176L38.6827 49.85ZM36.1918 46.7744L37.3812 43.5207L38.0503 46.7744H36.1918ZM32.8853 43.2462L33.2083 41.3791C33.2083 41.3791 32.2115 41 31.1724 41C30.049 41 27.3814 41.491 27.3814 43.8784C27.3814 46.1246 30.5123 46.1525 30.5123 47.3324C30.5123 48.5122 27.7039 48.3008 26.7771 47.5568L26.4406 49.5091C26.4406 49.5091 27.4514 50 28.9957 50C30.5404 50 32.8709 49.2002 32.8709 47.0233C32.8709 44.7626 29.7118 44.5521 29.7118 43.5693C29.712 42.5862 31.9166 42.7125 32.8853 43.2462Z" fill="#2566AF"/>
<path d="M18.5026 46L17.7607 42C17.7607 42 17.5618 41 16.48 41H12.7607H12.2607C12.2607 41 14.1902 41.5814 16.0026 43C17.7355 44.3559 18.5026 46 18.5026 46Z" fill="#E6A540"/>
<rect x="1" y="33" width="52" height="24" rx="4" stroke="#E2E2E2"/>
<path d="M96.7491 44.5234C96.556 44.6579 96.2758 44.7245 95.8924 44.7245H95.726H95.5121L95.8037 43.1496H95.9515H96.0833C96.4016 43.1496 96.6341 43.2009 96.7943 43.3048C96.9195 43.3864 97.0679 43.5478 97.0679 43.8541C97.0679 44.2231 96.8952 44.4217 96.7491 44.5234ZM74.0652 46.4998H71.1225L71.3127 45.4704H73.1585L73.3682 44.311H71.5402L71.7169 43.2923H74.6545L74.0652 46.4998ZM98.3344 42.4087C97.9017 42.1121 97.247 41.9626 96.3886 41.9626H94.1404L93.3047 46.5H90.3596L90.5485 45.4706H92.3227L92.5337 44.3144L90.7605 44.3175L90.9504 43.2926H92.7776L93.0207 41.9628H89.309L88.5158 46.2672H87.1548L87.9538 41.9628H86.0134L85.2202 46.2672H83.8931L84.6929 41.9628H82.7545L81.9167 46.5001H78.9507L79.1376 45.4707H80.9199L81.1298 44.3212L79.3502 44.3195L79.5392 43.2926H81.3867L81.6286 41.9628H70.0652L69.407 45.5585L68.0957 41.9626H66.0832L65 47.8305H66.9219L67.5774 44.136L68.85 47.8305H75.7386L76.5759 43.2924H77.6538L76.816 47.8305H94.942L95.467 44.9656L96.3179 47.8305H98.2409L97.3599 45.4897L97.561 45.4462C98.0042 45.3513 98.3511 45.1469 98.5918 44.8406C98.8329 44.5314 98.9553 44.1345 98.9553 43.6577C98.9555 43.1024 98.7527 42.6941 98.3344 42.4087Z" fill="#8DC640"/>
<path d="M99.9194 47.1366L100.181 47.123C100.237 47.1204 100.281 47.1121 100.311 47.0989C100.342 47.086 100.365 47.0663 100.38 47.0398C100.395 47.0134 100.402 46.9857 100.4 46.956C100.398 46.912 100.38 46.877 100.347 46.8502C100.314 46.8237 100.263 46.8127 100.195 46.8159L99.9032 46.8308L99.9194 47.1366ZM99.8225 47.6577L99.7754 46.7347L100.185 46.7141C100.267 46.7098 100.329 46.715 100.373 46.7295C100.417 46.7438 100.452 46.7714 100.48 46.8121C100.508 46.8528 100.523 46.8979 100.525 46.9488C100.529 47.0143 100.511 47.0704 100.471 47.1177C100.431 47.1645 100.367 47.1965 100.279 47.2132C100.312 47.2274 100.338 47.241 100.355 47.2551C100.392 47.2861 100.428 47.3255 100.462 47.3731L100.634 47.6162L100.482 47.6239L100.35 47.4381C100.312 47.3843 100.28 47.3433 100.256 47.3152C100.231 47.287 100.209 47.2677 100.191 47.2568C100.172 47.2459 100.153 47.2388 100.134 47.2348C100.12 47.2327 100.097 47.2324 100.066 47.2341L99.9247 47.2412L99.945 47.6515L99.8225 47.6577Z" fill="#8DC640"/>
<path d="M99.423 47.2108C99.4136 47.0198 99.4784 46.8367 99.6065 46.6952C99.7346 46.5533 99.9107 46.4695 100.102 46.4598C100.496 46.4393 100.833 46.7435 100.853 47.1377C100.854 47.1499 100.854 47.1627 100.854 47.1744C100.854 47.5527 100.556 47.8696 100.175 47.8896C99.7802 47.9096 99.4436 47.6051 99.423 47.2108ZM100.094 46.3126C99.8641 46.3249 99.652 46.4253 99.4978 46.5964C99.3435 46.7673 99.2647 46.9886 99.2766 47.2188C99.3014 47.6935 99.7074 48.0598 100.182 48.036C100.657 48.0115 101.024 47.6051 100.999 47.1305V47.13C100.975 46.6552 100.569 46.2885 100.094 46.3126Z" fill="#8DC640"/>
<rect x="57" y="33" width="52" height="24" rx="4" stroke="#E2E2E2"/>
<g clip-path="url(#clip0_3866_243)">
<path d="M38.5275 85.7556V85.8019H38.5723C38.5807 85.802 38.589 85.8 38.5963 85.796C38.5992 85.794 38.6015 85.7913 38.6031 85.7882C38.6047 85.7851 38.6054 85.7817 38.6053 85.7783C38.6054 85.7749 38.6047 85.7715 38.6031 85.7685C38.6015 85.7655 38.5992 85.7629 38.5963 85.761C38.589 85.7569 38.5807 85.7548 38.5723 85.7551H38.5275V85.7556ZM38.5727 85.7229C38.5919 85.7217 38.6109 85.727 38.6265 85.7379C38.6327 85.7428 38.6377 85.7491 38.641 85.7562C38.6443 85.7633 38.6457 85.7711 38.6453 85.7789C38.6456 85.7855 38.6444 85.7922 38.6418 85.7984C38.6392 85.8046 38.6353 85.8102 38.6302 85.8148C38.6182 85.8249 38.6031 85.831 38.5873 85.8321L38.6473 85.898H38.6011L38.5459 85.8325H38.528V85.898H38.4893V85.723H38.5733L38.5727 85.7229ZM38.5607 85.9584C38.581 85.9586 38.6011 85.9546 38.6197 85.9468C38.6376 85.9394 38.6539 85.9288 38.6677 85.9155C38.6815 85.9022 38.6925 85.8865 38.7002 85.8692C38.7159 85.8325 38.7159 85.7913 38.7002 85.7547C38.6924 85.7374 38.6814 85.7218 38.6677 85.7084C38.6539 85.6951 38.6376 85.6845 38.6197 85.6771C38.601 85.6697 38.5809 85.666 38.5607 85.6662C38.5402 85.666 38.5198 85.6697 38.5007 85.6771C38.4824 85.6844 38.4658 85.695 38.4517 85.7084C38.4304 85.7294 38.4161 85.7559 38.4104 85.7847C38.4047 85.8135 38.4079 85.8433 38.4196 85.8704C38.4269 85.8877 38.4378 85.9035 38.4517 85.9166C38.4658 85.93 38.4824 85.9407 38.5007 85.948C38.5197 85.9558 38.5401 85.9597 38.5607 85.9596V85.9584ZM38.5607 85.6241C38.6135 85.624 38.6641 85.644 38.7017 85.6796C38.7199 85.6967 38.7343 85.7171 38.7442 85.7396C38.7545 85.7628 38.7598 85.7877 38.7598 85.8128C38.7598 85.838 38.7545 85.8629 38.7442 85.886C38.7341 85.9084 38.7197 85.9287 38.7017 85.946C38.6833 85.963 38.6619 85.9767 38.6385 85.9865C38.6139 85.9966 38.5875 86.0017 38.5607 86.0015C38.5337 86.0017 38.5069 85.9966 38.482 85.9865C38.4583 85.977 38.4367 85.9632 38.4183 85.946C38.4004 85.9281 38.3862 85.9071 38.3764 85.884C38.3662 85.8609 38.3609 85.836 38.3609 85.8108C38.3609 85.7857 38.3662 85.7608 38.3764 85.7377C38.3863 85.7152 38.4008 85.6947 38.4189 85.6776C38.4371 85.6601 38.4588 85.6463 38.4826 85.6372C38.5075 85.627 38.5343 85.6219 38.5613 85.6221L38.5607 85.6241ZM20.1864 84.9482C20.1864 84.6144 20.4132 84.3403 20.7838 84.3403C21.1381 84.3403 21.3771 84.6026 21.3771 84.9482C21.3771 85.2937 21.1381 85.5561 20.7838 85.5561C20.4132 85.5561 20.1864 85.2819 20.1864 84.9482ZM21.7809 84.9482V83.9984H21.3526V84.2298C21.2168 84.0588 21.0108 83.9516 20.7306 83.9516C20.1786 83.9516 19.7454 84.3689 19.7454 84.9486C19.7454 85.5283 20.1783 85.9457 20.7306 85.9457C21.0106 85.9457 21.2168 85.8383 21.3526 85.6675V85.898H21.7804V84.9482H21.7809ZM36.2519 84.9482C36.2519 84.6144 36.4787 84.3403 36.8495 84.3403C37.2041 84.3403 37.4428 84.6026 37.4428 84.9482C37.4428 85.2937 37.2041 85.5561 36.8495 85.5561C36.4789 85.5561 36.2519 85.2819 36.2519 84.9482ZM37.847 84.9482V83.2361H37.4183V84.2298C37.2825 84.0588 37.0765 83.9516 36.7963 83.9516C36.2443 83.9516 35.8111 84.3689 35.8111 84.9486C35.8111 85.5283 36.244 85.9457 36.7963 85.9457C37.0765 85.9457 37.2825 85.8383 37.4183 85.6675V85.898H37.847V84.9482ZM27.0964 84.3207C27.3724 84.3207 27.5497 84.4875 27.5949 84.7812H26.573C26.6187 84.5071 26.7914 84.3207 27.0966 84.3207H27.0964ZM27.1051 83.9505C26.5279 83.9505 26.1241 84.3554 26.1241 84.9476C26.1241 85.5513 26.5441 85.9446 27.1338 85.9446C27.4304 85.9446 27.7021 85.8733 27.9411 85.6786L27.7312 85.3726C27.5661 85.4998 27.3559 85.5712 27.1582 85.5712C26.8822 85.5712 26.631 85.448 26.5692 85.1062H28.0316C28.0358 85.0548 28.0401 85.003 28.0401 84.9475C28.0358 84.3555 27.6561 83.9504 27.1048 83.9504L27.1051 83.9505ZM32.2756 84.9475C32.2756 84.6137 32.5024 84.3396 32.8731 84.3396C33.2274 84.3396 33.4664 84.6019 33.4664 84.9475C33.4664 85.293 33.2274 85.5554 32.8731 85.5554C32.5024 85.5554 32.2755 85.2812 32.2755 84.9475H32.2756ZM33.8701 84.9475V83.9984H33.442V84.2298C33.3057 84.0588 33.1001 83.9516 32.8199 83.9516C32.268 83.9516 31.8348 84.3689 31.8348 84.9486C31.8348 85.5283 32.2677 85.9457 32.8199 85.9457C33.1001 85.9457 33.3057 85.8383 33.442 85.6675V85.898H33.8702V84.9482L33.8701 84.9475ZM29.857 84.9475C29.857 85.5234 30.273 85.9445 30.9078 85.9445C31.2044 85.9445 31.402 85.8809 31.6158 85.7181L31.4101 85.3844C31.2493 85.4958 31.0804 85.5554 30.8941 85.5554C30.5522 85.5513 30.3008 85.313 30.3008 84.9475C30.3008 84.5819 30.5522 84.3437 30.8941 84.3396C31.08 84.3396 31.2488 84.3991 31.4101 84.5105L31.6158 84.1768C31.4017 84.014 31.204 83.9504 30.9078 83.9504C30.273 83.9504 29.857 84.3714 29.857 84.9475ZM35.3782 83.9504C35.1311 83.9504 34.9702 84.0618 34.859 84.2286V83.9984H34.4345V85.897H34.8633V84.8327C34.8633 84.5185 35.0033 84.344 35.2833 84.344C35.375 84.3427 35.466 84.3589 35.5511 84.3917L35.6831 84.0026C35.5883 83.9666 35.4647 83.9508 35.378 83.9508L35.3782 83.9504ZM23.8983 84.1494C23.6923 84.0184 23.4084 83.9508 23.0952 83.9508C22.5962 83.9508 22.275 84.1813 22.275 84.5585C22.275 84.8681 22.5141 85.0591 22.9545 85.1187L23.1568 85.1464C23.3917 85.1782 23.5026 85.2378 23.5026 85.3451C23.5026 85.4919 23.3466 85.5756 23.0536 85.5756C22.757 85.5756 22.5429 85.4842 22.3986 85.377L22.1973 85.6989C22.4322 85.8657 22.7288 85.9453 23.05 85.9453C23.6188 85.9453 23.9485 85.6871 23.9485 85.3256C23.9485 84.9919 23.689 84.8173 23.2604 84.7577L23.0586 84.7295C22.8732 84.7064 22.7246 84.6704 22.7246 84.5432C22.7246 84.4043 22.8646 84.3208 23.0996 84.3208C23.351 84.3208 23.5944 84.4122 23.7136 84.4836L23.899 84.1498L23.8983 84.1494ZM29.4244 83.9511C29.1774 83.9511 29.0164 84.0625 28.9057 84.2293V83.9984H28.4812V85.897H28.9095V84.8327C28.9095 84.5185 29.0496 84.344 29.3295 84.344C29.4212 84.3427 29.5122 84.3589 29.5974 84.3917L29.7294 84.0026C29.6346 83.9666 29.511 83.9508 29.4242 83.9508L29.4244 83.9511ZM25.7697 83.9984H25.0694V83.4224H24.6364V83.9984H24.237V84.3758H24.6364V85.2419C24.6364 85.6824 24.8138 85.9447 25.3204 85.9447C25.5063 85.9447 25.7204 85.8892 25.8562 85.7979L25.7325 85.4444C25.6047 85.5158 25.4647 85.5518 25.3533 85.5518C25.1392 85.5518 25.0694 85.4245 25.0694 85.234V84.3761H25.7697V83.9984ZM19.3666 85.8974V84.7059C19.3666 84.2572 19.07 83.9553 18.5918 83.9512C18.3404 83.9472 18.0811 84.0226 17.8995 84.289C17.7637 84.0785 17.5496 83.9512 17.2486 83.9512C17.0383 83.9512 16.8327 84.0108 16.6718 84.2331V83.9984H16.2432V85.897H16.6752V84.8443C16.6752 84.5147 16.8648 84.3396 17.1576 84.3396C17.442 84.3396 17.5858 84.5183 17.5858 84.8401V85.8967H18.0188V84.844C18.0188 84.5145 18.2164 84.3393 18.5007 84.3393C18.7932 84.3393 18.9327 84.5181 18.9327 84.8399V85.8965L19.3666 85.8974Z" fill="#081C15"/>
<path d="M38.7716 79.5825V79.3049H38.6966L38.6098 79.4954L38.5235 79.3049H38.4483V79.5825H38.5016V79.3734L38.5827 79.5539H38.6379L38.719 79.3729V79.5825H38.7718H38.7716ZM38.2958 79.5825V79.3525H38.3918V79.3056H38.1465V79.3525H38.2425V79.5825H38.2953H38.2958Z" fill="#F79410"/>
<path d="M30.2472 80.773H23.7568V69.5288H30.2473L30.2472 80.773Z" fill="#FF5F00"/>
<path d="M24.168 75.1503C24.168 72.8695 25.2758 70.8376 27.001 69.5282C25.6951 68.5356 24.08 67.9969 22.4171 67.9993C18.3206 67.9993 15 71.2009 15 75.1503C15 79.0998 18.3206 82.3014 22.4171 82.3014C24.0801 82.3038 25.6952 81.7651 27.0011 80.7725C25.2761 79.4633 24.168 77.4313 24.168 75.1503Z" fill="#EB001B"/>
<path d="M39.0026 75.1511C39.0026 79.1005 35.682 82.3021 31.5856 82.3021C29.9224 82.3045 28.3071 81.7658 27.001 80.7732C28.7266 79.4638 29.8344 77.4321 29.8344 75.1511C29.8344 72.8701 28.7266 70.8384 27.001 69.529C28.307 68.5364 29.9223 67.9977 31.5854 68C35.6819 68 39.0025 71.2016 39.0025 75.1511" fill="#F79E1B"/>
</g>
<rect x="1" y="65" width="52" height="24" rx="4" stroke="#E2E2E2"/>
<g clip-path="url(#clip1_3866_243)">
<g clip-path="url(#clip2_3866_243)">
<path fill-rule="evenodd" clip-rule="evenodd" d="M90.8329 73.9467C91.6482 73.9467 92.3091 73.3059 92.3091 72.5157C92.3091 71.7251 91.6482 71.0837 90.8329 71.0837C90.0186 71.0837 89.358 71.7251 89.358 72.5157C89.358 73.3059 90.0186 73.9467 90.8329 73.9467ZM79.5275 74.7194C79.4609 74.8817 78.9815 76.1954 77.822 77.557V71.7353L74.7327 72.3276V82.8801H77.822V79.6182C78.7168 80.9201 79.1586 82.8801 79.1586 82.8801H82.859C82.493 81.4039 80.8919 78.682 80.8919 78.682C82.3288 76.9147 82.96 75.0314 83.0604 74.7194H79.5275ZM87.6492 74.6093C84.8821 74.6954 83.4775 75.8997 83.4775 78.2937V82.8801H86.4963V79.14C86.4963 77.7065 86.6898 77.092 88.4433 77.0334V74.6513C88.1482 74.5905 87.6492 74.6093 87.6492 74.6093ZM69.5515 75.8814C69.1731 75.8573 68.2971 75.8024 68.2971 75.0373C68.2971 74.114 69.5584 74.114 70.0314 74.114C70.8632 74.114 71.9405 74.3525 72.7099 74.5757C72.7099 74.5757 73.139 74.7225 73.5042 74.8728L73.5382 74.8817V72.3533L73.4916 72.3399C72.5836 72.0317 71.5279 71.7353 69.5706 71.7353C66.1958 71.7353 65 73.6425 65 75.2764C65 76.2182 65.4161 78.4348 69.2811 78.6905C69.6088 78.71 70.4783 78.7587 70.4783 79.5493C70.4783 80.2021 69.7664 80.587 68.5691 80.587C67.2569 80.587 65.9841 80.2624 65.2109 79.9545V82.5587C66.3683 82.853 67.673 83.0001 69.2022 83.0001C72.502 83.0001 73.9799 81.1956 73.9799 79.4071C73.9799 77.3793 72.3261 76.0617 69.5515 75.8814ZM89.3365 82.8801H92.3308V74.7287H89.3365V82.8801ZM97.969 72.255V82.8801H100.964V71.7353L97.969 72.255ZM93.5992 72.255L96.5912 71.7353V82.8801H93.5992V72.255Z" fill="url(#paint0_linear_3866_243)"/>
</g>
</g>
<rect x="57" y="65" width="52" height="24" rx="4" stroke="#E2E2E2"/>
<defs>
<linearGradient id="paint0_linear_3866_243" x1="74.726" y1="71.0837" x2="77.2738" y2="85.8086" gradientUnits="userSpaceOnUse">
<stop stop-color="#6B195F"/>
<stop offset="1" stop-color="#4C255B"/>
</linearGradient>
<clipPath id="clip0_3866_243">
<rect width="24" height="18" fill="white" transform="translate(15 68)"/>
</clipPath>
<clipPath id="clip1_3866_243">
<rect x="57" y="65" width="52" height="24" rx="4" fill="white"/>
</clipPath>
<clipPath id="clip2_3866_243">
<rect width="36" height="12" fill="white" transform="translate(65 71)"/>
</clipPath>
</defs>
</svg>
