<svg width="156" height="32" viewBox="0 0 156 32" fill="none" xmlns="http://www.w3.org/2000/svg">
<path fill-rule="evenodd" clip-rule="evenodd" d="M13.6533 15.1467H1.49334C0.672078 15.1467 0 14.4746 0 13.6533V1.49334C0 0.672078 0.672078 0 1.49334 0H13.6533C14.4746 0 15.1467 0.672078 15.1467 1.49334V13.6533C15.1467 14.4746 14.4746 15.1467 13.6533 15.1467Z" fill="#DB46B1"/>
<path fill-rule="evenodd" clip-rule="evenodd" d="M16.8535 13.6533V1.49334C16.8535 0.672078 17.5256 0 18.3469 0H30.5069C31.3281 0 32.0002 0.672078 32.0002 1.49334V13.6533C32.0002 14.4746 31.3281 15.1467 30.5069 15.1467H18.3469C17.5256 15.1467 16.8535 14.4746 16.8535 13.6533Z" fill="#18191F"/>
<path fill-rule="evenodd" clip-rule="evenodd" d="M18.3469 16.8533H30.5069C31.3281 16.8533 32.0002 17.5253 32.0002 18.3466V30.5066C32.0002 31.3279 31.3281 31.9999 30.5069 31.9999H18.3469C17.5256 31.9999 16.8535 31.3279 16.8535 30.5066V18.3466C16.8535 17.5253 17.5256 16.8533 18.3469 16.8533Z" fill="#DB46B1"/>
<path fill-rule="evenodd" clip-rule="evenodd" d="M15.1467 18.3466V30.5066C15.1467 31.3279 14.4746 31.9999 13.6533 31.9999H1.49334C0.672078 31.9999 0 31.3279 0 30.5066V18.3466C0 17.5253 0.672078 16.8533 1.49334 16.8533H13.6533C14.4746 16.8533 15.1467 17.5253 15.1467 18.3466Z" fill="#18191F"/>
<path fill-rule="evenodd" clip-rule="evenodd" d="M7.57317 4.82546L7.58496 4.80751C8.00789 4.13902 8.75328 3.69507 9.60274 3.69507C10.9208 3.69507 11.9891 4.76342 11.9891 6.08144C11.9891 7.84238 8.95168 9.19219 7.57317 11.4509C6.19466 9.19168 3.15723 7.84238 3.15723 6.08144C3.15723 4.76342 4.22558 3.69507 5.5436 3.69507C6.39306 3.69507 7.13845 4.13902 7.56138 4.80751L7.57317 4.82546Z" fill="white"/>
<path d="M24.4264 28.3047C26.2212 28.3047 27.6761 26.5684 27.6761 24.4265C27.6761 22.2847 26.2212 20.5483 24.4264 20.5483C22.6317 20.5483 21.1768 22.2847 21.1768 24.4265C21.1768 26.5684 22.6317 28.3047 24.4264 28.3047Z" fill="white"/>
<path fill-rule="evenodd" clip-rule="evenodd" d="M24.426 9.00632L24.4362 8.99196C24.8048 9.5246 25.4543 9.87884 26.1941 9.87884C27.3419 9.87884 28.2729 9.02733 28.2729 7.97641C28.2729 6.57226 25.6271 5.49673 24.4265 3.6958C23.2258 5.49673 20.5801 6.57226 20.5801 7.97641C20.5801 9.02682 21.5105 9.87884 22.6589 9.87884C23.3986 9.87884 24.0481 9.52511 24.4167 8.99196L24.426 9.00632Z" fill="white"/>
<path fill-rule="evenodd" clip-rule="evenodd" d="M24.4258 8.69048C24.3622 8.64947 24.2802 8.69151 24.1787 8.81659C24.2345 9.7573 23.9623 10.6888 23.4092 11.4516H24.3776H24.4739H25.4423C24.8892 10.6883 24.617 9.7573 24.6729 8.81659C24.5719 8.69151 24.4893 8.64947 24.4258 8.69048Z" fill="white"/>
<path fill-rule="evenodd" clip-rule="evenodd" d="M7.57369 20.363C8.63743 20.363 9.4997 21.2253 9.4997 22.2891C9.4997 22.4844 9.47048 22.6725 9.41666 22.8499C9.44075 22.8489 9.46484 22.8484 9.48894 22.8484C10.5527 22.8484 11.415 23.7106 11.415 24.7744C11.415 25.8381 10.5527 26.7004 9.48894 26.7004C8.76098 26.7004 8.12735 26.2964 7.79976 25.7002C7.83257 26.6071 8.08018 27.8887 8.51645 28.4905H7.61829H7.52909H6.63093C7.06719 27.8887 7.3148 26.6076 7.34761 25.7002C7.02003 26.2964 6.3864 26.7004 5.65844 26.7004C4.59469 26.7004 3.73242 25.8381 3.73242 24.7744C3.73242 23.7106 4.59469 22.8484 5.65844 22.8484C5.68253 22.8484 5.70663 22.8489 5.73072 22.8499C5.67689 22.6725 5.64767 22.4839 5.64767 22.2891C5.64767 21.2253 6.50994 20.363 7.57369 20.363Z" fill="white"/>
<path d="M55.52 23V17.32C55.52 16.6 55.3467 16.0567 55 15.69C54.6533 15.3233 54.2 15.14 53.64 15.14C53.1667 15.14 52.7467 15.27 52.38 15.53C52.02 15.79 51.7367 16.1833 51.53 16.71C51.3233 17.23 51.22 17.88 51.22 18.66H50.44C50.44 17.4 50.5967 16.3533 50.91 15.52C51.2233 14.68 51.6667 14.0533 52.24 13.64C52.8133 13.2267 53.4867 13.02 54.26 13.02C55.06 13.02 55.7267 13.2 56.26 13.56C56.8 13.9133 57.2033 14.4133 57.47 15.06C57.7433 15.7067 57.88 16.46 57.88 17.32V23H55.52ZM48.86 23V9.28H51.22V23H48.86ZM65.1409 23.28C64.2543 23.28 63.4509 23.09 62.7309 22.71C62.0176 22.33 61.4509 21.7633 61.0309 21.01C60.6109 20.25 60.4009 19.3 60.4009 18.16C60.4009 17 60.6109 16.04 61.0309 15.28C61.4509 14.52 62.0176 13.9533 62.7309 13.58C63.4509 13.2067 64.2543 13.02 65.1409 13.02C66.0143 13.02 66.8043 13.2067 67.5109 13.58C68.2243 13.9533 68.7909 14.52 69.2109 15.28C69.6309 16.04 69.8409 17 69.8409 18.16C69.8409 19.3 69.6309 20.25 69.2109 21.01C68.7909 21.7633 68.2243 22.33 67.5109 22.71C66.8043 23.09 66.0143 23.28 65.1409 23.28ZM65.0609 21.22C65.5276 21.22 65.9409 21.1067 66.3009 20.88C66.6676 20.6467 66.9543 20.3033 67.1609 19.85C67.3743 19.3967 67.4809 18.8333 67.4809 18.16C67.4809 17.1333 67.2776 16.36 66.8709 15.84C66.4709 15.32 65.9209 15.06 65.2209 15.06C64.7476 15.06 64.3276 15.1767 63.9609 15.41C63.5943 15.6367 63.3043 15.98 63.0909 16.44C62.8843 16.9 62.7809 17.4733 62.7809 18.16C62.7809 19.1733 62.9843 19.9367 63.3909 20.45C63.8043 20.9633 64.3609 21.22 65.0609 21.22ZM75.9291 23.28C75.3557 23.28 74.8291 23.1733 74.3491 22.96C73.8757 22.7467 73.4957 22.42 73.2091 21.98C72.9291 21.54 72.7891 20.98 72.7891 20.3V10.72H75.1491V20.22C75.1491 21.02 75.5291 21.42 76.2891 21.42C76.5224 21.42 76.7557 21.3933 76.9891 21.34C77.2224 21.2867 77.4891 21.2067 77.7891 21.1L78.1291 22.76C77.7557 22.9067 77.3924 23.03 77.0391 23.13C76.6857 23.23 76.3157 23.28 75.9291 23.28ZM71.4291 14.86V13.3H77.7891V14.86H71.4291ZM84.1597 23.28C83.2264 23.28 82.423 23.1533 81.7497 22.9C81.083 22.64 80.5697 22.27 80.2097 21.79C79.8497 21.3033 79.6664 20.72 79.6597 20.04H81.8397C81.8597 20.52 82.0497 20.87 82.4097 21.09C82.7697 21.31 83.2597 21.42 83.8797 21.42C84.2197 21.42 84.5197 21.37 84.7797 21.27C85.0464 21.17 85.253 21.0333 85.3997 20.86C85.5464 20.6867 85.6197 20.4933 85.6197 20.28C85.6197 20.0067 85.5197 19.7933 85.3197 19.64C85.1264 19.48 84.813 19.3333 84.3797 19.2L82.2597 18.44C81.4997 18.1667 80.9164 17.8067 80.5097 17.36C80.103 16.9133 79.8997 16.38 79.8997 15.76C79.8997 14.94 80.2697 14.28 81.0097 13.78C81.7564 13.2733 82.753 13.02 83.9997 13.02C85.2397 13.02 86.1964 13.2933 86.8697 13.84C87.5497 14.38 87.8997 15.0667 87.9197 15.9H85.6997C85.6664 15.58 85.513 15.3267 85.2397 15.14C84.9664 14.9533 84.553 14.86 83.9997 14.86C83.4997 14.86 83.1064 14.9633 82.8197 15.17C82.5397 15.37 82.3997 15.6067 82.3997 15.88C82.3997 16.34 82.793 16.6867 83.5797 16.92L85.8797 17.78C86.6264 18.0333 87.2064 18.36 87.6197 18.76C88.033 19.16 88.2397 19.6667 88.2397 20.28C88.2397 20.7933 88.0664 21.28 87.7197 21.74C87.3797 22.1933 86.903 22.5633 86.2897 22.85C85.6764 23.1367 84.9664 23.28 84.1597 23.28ZM95.9466 23.28C95.2332 23.28 94.6266 23.1267 94.1266 22.82C93.6266 22.5133 93.2432 22.05 92.9766 21.43C92.7166 20.8033 92.5866 20.02 92.5866 19.08H93.4466C93.4466 19.5133 93.5466 19.8833 93.7466 20.19C93.9466 20.4967 94.2099 20.7333 94.5366 20.9C94.8699 21.06 95.2266 21.14 95.6066 21.14C95.9999 21.14 96.3866 21.0333 96.7666 20.82C97.1532 20.6 97.4732 20.27 97.7266 19.83C97.9799 19.3833 98.1066 18.82 98.1066 18.14C98.1066 17.52 97.9999 16.9867 97.7866 16.54C97.5732 16.0867 97.2799 15.74 96.9066 15.5C96.5399 15.26 96.1199 15.14 95.6466 15.14C95.2466 15.14 94.8799 15.23 94.5466 15.41C94.2132 15.59 93.9466 15.8533 93.7466 16.2C93.5466 16.54 93.4466 16.9533 93.4466 17.44H92.5866C92.5866 16.42 92.7432 15.5867 93.0566 14.94C93.3699 14.2867 93.7899 13.8033 94.3166 13.49C94.8432 13.1767 95.4199 13.02 96.0466 13.02C96.8132 13.02 97.5332 13.2233 98.2066 13.63C98.8866 14.0367 99.4366 14.6233 99.8566 15.39C100.277 16.15 100.487 17.0667 100.487 18.14C100.487 19.22 100.273 20.1433 99.8466 20.91C99.4199 21.6767 98.8599 22.2633 98.1666 22.67C97.4799 23.0767 96.7399 23.28 95.9466 23.28ZM91.0866 27.74V13.3H93.0266L93.4466 15.7V27.74H91.0866ZM107.114 23.28C106.227 23.28 105.424 23.09 104.704 22.71C103.99 22.33 103.424 21.7633 103.004 21.01C102.584 20.25 102.374 19.3 102.374 18.16C102.374 17 102.584 16.04 103.004 15.28C103.424 14.52 103.99 13.9533 104.704 13.58C105.424 13.2067 106.227 13.02 107.114 13.02C107.987 13.02 108.777 13.2067 109.484 13.58C110.197 13.9533 110.764 14.52 111.184 15.28C111.604 16.04 111.814 17 111.814 18.16C111.814 19.3 111.604 20.25 111.184 21.01C110.764 21.7633 110.197 22.33 109.484 22.71C108.777 23.09 107.987 23.28 107.114 23.28ZM107.034 21.22C107.5 21.22 107.914 21.1067 108.274 20.88C108.64 20.6467 108.927 20.3033 109.134 19.85C109.347 19.3967 109.454 18.8333 109.454 18.16C109.454 17.1333 109.25 16.36 108.844 15.84C108.444 15.32 107.894 15.06 107.194 15.06C106.72 15.06 106.3 15.1767 105.934 15.41C105.567 15.6367 105.277 15.98 105.064 16.44C104.857 16.9 104.754 17.4733 104.754 18.16C104.754 19.1733 104.957 19.9367 105.364 20.45C105.777 20.9633 106.334 21.22 107.034 21.22ZM114.622 23V13.26H116.982V23H114.622ZM116.402 18.74C116.402 17.4667 116.545 16.4133 116.832 15.58C117.118 14.7467 117.502 14.13 117.982 13.73C118.468 13.3233 119.008 13.12 119.602 13.12C119.762 13.12 119.912 13.13 120.052 13.15C120.198 13.17 120.342 13.2 120.482 13.24L120.442 15.6C120.268 15.56 120.082 15.5267 119.882 15.5C119.682 15.4733 119.502 15.46 119.342 15.46C118.822 15.46 118.385 15.5867 118.032 15.84C117.685 16.0867 117.422 16.4533 117.242 16.94C117.068 17.4267 116.982 18.0267 116.982 18.74H116.402ZM125.753 23.28C125.18 23.28 124.653 23.1733 124.173 22.96C123.7 22.7467 123.32 22.42 123.033 21.98C122.753 21.54 122.613 20.98 122.613 20.3V10.72H124.973V20.22C124.973 21.02 125.353 21.42 126.113 21.42C126.347 21.42 126.58 21.3933 126.813 21.34C127.047 21.2867 127.313 21.2067 127.613 21.1L127.953 22.76C127.58 22.9067 127.217 23.03 126.863 23.13C126.51 23.23 126.14 23.28 125.753 23.28ZM121.253 14.86V13.3H127.613V14.86H121.253ZM128.984 21.62C128.984 21.1667 129.137 20.7867 129.444 20.48C129.751 20.1733 130.144 20.02 130.624 20.02C131.104 20.02 131.504 20.1733 131.824 20.48C132.144 20.7867 132.304 21.1667 132.304 21.62C132.304 22.0667 132.144 22.44 131.824 22.74C131.504 23.0333 131.104 23.18 130.624 23.18C130.144 23.18 129.751 23.03 129.444 22.73C129.137 22.43 128.984 22.06 128.984 21.62ZM138.341 23.28C137.527 23.28 136.771 23.07 136.071 22.65C135.377 22.2233 134.814 21.6267 134.381 20.86C133.954 20.0867 133.741 19.18 133.741 18.14C133.741 17.04 133.954 16.11 134.381 15.35C134.814 14.5833 135.377 14.0033 136.071 13.61C136.771 13.2167 137.527 13.02 138.341 13.02C138.974 13.02 139.531 13.1233 140.011 13.33C140.497 13.53 140.911 13.8033 141.251 14.15C141.591 14.49 141.857 14.87 142.051 15.29C142.244 15.71 142.367 16.1333 142.421 16.56L140.041 16.62C139.934 16.1933 139.734 15.84 139.441 15.56C139.154 15.28 138.781 15.14 138.321 15.14C137.941 15.14 137.584 15.2467 137.251 15.46C136.917 15.6667 136.644 15.99 136.431 16.43C136.224 16.87 136.121 17.44 136.121 18.14C136.121 18.8067 136.217 19.3633 136.411 19.81C136.611 20.25 136.877 20.5833 137.211 20.81C137.544 21.03 137.914 21.14 138.321 21.14C138.921 21.14 139.357 20.9967 139.631 20.71C139.904 20.4167 140.041 20.0267 140.041 19.54H142.421C142.421 20.2267 142.264 20.8533 141.951 21.42C141.637 21.9867 141.177 22.44 140.571 22.78C139.964 23.1133 139.221 23.28 138.341 23.28ZM151.907 23V17.32C151.907 16.6 151.733 16.0567 151.387 15.69C151.04 15.3233 150.587 15.14 150.027 15.14C149.553 15.14 149.133 15.27 148.767 15.53C148.407 15.79 148.123 16.1833 147.917 16.71C147.71 17.23 147.607 17.88 147.607 18.66H146.827C146.827 17.4 146.983 16.3533 147.297 15.52C147.61 14.68 148.053 14.0533 148.627 13.64C149.2 13.2267 149.873 13.02 150.647 13.02C151.447 13.02 152.113 13.2 152.647 13.56C153.187 13.9133 153.59 14.4133 153.857 15.06C154.13 15.7067 154.267 16.46 154.267 17.32V23H151.907ZM145.247 23V9.28H147.607V23H145.247Z" fill="#18191F"/>
</svg>
